G75*
%MOIN*%
%OFA0B0*%
%FSLAX25Y25*%
%IPPOS*%
%LPD*%
%AMOC8*
5,1,8,0,0,1.08239X$1,22.5*
%
%ADD10C,0.08300*%
%ADD11OC8,0.08300*%
%ADD12C,0.08200*%
%ADD13C,0.07400*%
%ADD14C,0.12611*%
%ADD15C,0.08600*%
%ADD16R,0.03400X0.08800*%
%ADD17C,0.10800*%
%ADD18C,0.06800*%
%ADD19C,0.04762*%
%ADD20C,0.04800*%
D10*
X0193992Y0189163D03*
D11*
X0193992Y0169163D03*
D12*
X0162260Y0207510D03*
X0152260Y0207510D03*
X0142260Y0207510D03*
X0132260Y0207510D03*
X0122260Y0207510D03*
X0112260Y0207510D03*
X0102260Y0207510D03*
X0092260Y0207510D03*
X0082260Y0207510D03*
X0072260Y0207510D03*
X0062260Y0207510D03*
X0052260Y0207510D03*
X0042260Y0207510D03*
X0032260Y0207510D03*
X0022260Y0207510D03*
X0022260Y0266683D03*
X0032260Y0266683D03*
X0042260Y0266683D03*
X0052260Y0266683D03*
X0062260Y0266683D03*
X0072260Y0266683D03*
X0082260Y0266683D03*
X0092260Y0266683D03*
X0102260Y0266683D03*
X0112260Y0266683D03*
X0122260Y0266683D03*
X0132260Y0266683D03*
X0142260Y0266683D03*
X0152260Y0266683D03*
X0162260Y0266683D03*
X0106394Y0293848D03*
X0096394Y0293848D03*
X0086394Y0293848D03*
X0076394Y0293848D03*
X0066394Y0293848D03*
X0056394Y0293848D03*
X0046394Y0293848D03*
X0036394Y0293848D03*
X0036394Y0383219D03*
X0046394Y0383219D03*
X0056394Y0383219D03*
X0066394Y0383219D03*
X0076394Y0383219D03*
X0086394Y0383219D03*
X0096394Y0383219D03*
X0106394Y0383219D03*
X0152654Y0377234D03*
X0162654Y0377234D03*
X0172654Y0377234D03*
X0182654Y0377234D03*
X0203717Y0380620D03*
X0213717Y0380620D03*
X0223717Y0380620D03*
X0233717Y0380620D03*
X0233717Y0370620D03*
X0223717Y0370620D03*
X0213717Y0370620D03*
X0203717Y0370620D03*
X0156000Y0353337D03*
X0156000Y0343337D03*
X0156000Y0333337D03*
X0156000Y0323337D03*
X0267299Y0380463D03*
X0277299Y0380463D03*
X0287299Y0380463D03*
X0297299Y0380463D03*
X0349898Y0379596D03*
X0359898Y0379596D03*
X0369898Y0379596D03*
X0379898Y0379596D03*
X0379622Y0342549D03*
X0379622Y0332549D03*
X0379622Y0322549D03*
X0382654Y0271841D03*
X0372654Y0271841D03*
X0362654Y0271841D03*
X0352654Y0271841D03*
X0379858Y0247589D03*
X0379858Y0237589D03*
X0379858Y0227589D03*
X0379858Y0217589D03*
X0343008Y0218297D03*
X0343008Y0208297D03*
X0343008Y0198297D03*
X0372142Y0177746D03*
X0372142Y0149715D03*
D13*
X0372142Y0159715D03*
X0372142Y0167746D03*
D14*
X0371197Y0189478D02*
X0383008Y0189478D01*
X0383402Y0138022D02*
X0371591Y0138022D01*
D15*
X0268988Y0127130D02*
X0268988Y0119330D01*
X0245488Y0127330D02*
X0245488Y0135130D01*
X0221988Y0127130D02*
X0221988Y0119330D01*
X0201272Y0119330D02*
X0201272Y0127130D01*
X0177772Y0127330D02*
X0177772Y0135130D01*
X0154272Y0127130D02*
X0154272Y0119330D01*
X0133555Y0119330D02*
X0133555Y0127130D01*
X0110055Y0127330D02*
X0110055Y0135130D01*
X0086555Y0127130D02*
X0086555Y0119330D01*
X0065839Y0119330D02*
X0065839Y0127130D01*
X0042339Y0127330D02*
X0042339Y0135130D01*
X0018839Y0127130D02*
X0018839Y0119330D01*
X0018839Y0079130D02*
X0018839Y0071330D01*
X0065839Y0071330D02*
X0065839Y0079130D01*
X0086555Y0079130D02*
X0086555Y0071330D01*
X0133555Y0071330D02*
X0133555Y0079130D01*
X0154272Y0079130D02*
X0154272Y0071330D01*
X0201272Y0071330D02*
X0201272Y0079130D01*
X0221988Y0079130D02*
X0221988Y0071330D01*
X0268988Y0071330D02*
X0268988Y0079130D01*
D16*
X0092122Y0165489D03*
X0087122Y0165489D03*
X0082122Y0165489D03*
X0077122Y0165489D03*
X0072122Y0165489D03*
X0067122Y0165489D03*
X0062122Y0165489D03*
X0057122Y0165489D03*
X0057122Y0189689D03*
X0062122Y0189689D03*
X0067122Y0189689D03*
X0072122Y0189689D03*
X0077122Y0189689D03*
X0082122Y0189689D03*
X0087122Y0189689D03*
X0092122Y0189689D03*
D17*
X0016118Y0016880D03*
X0036118Y0016880D03*
X0056118Y0016880D03*
X0076118Y0016880D03*
X0096118Y0016880D03*
X0116118Y0016880D03*
D18*
X0336827Y0024785D02*
X0336827Y0030785D01*
X0348244Y0030864D02*
X0348244Y0024864D01*
X0348244Y0046596D02*
X0348244Y0052596D01*
X0336827Y0052518D02*
X0336827Y0046518D01*
X0336748Y0133211D02*
X0336748Y0139211D01*
X0336748Y0147463D02*
X0336748Y0153463D01*
X0348165Y0153935D02*
X0348165Y0147935D01*
X0348165Y0139289D02*
X0348165Y0133289D01*
D19*
X0091945Y0177195D03*
X0036433Y0293888D03*
D20*
X0028000Y0273104D03*
X0044500Y0229604D03*
X0127000Y0241604D03*
X0122500Y0307604D03*
X0109000Y0316604D03*
X0128500Y0367604D03*
X0208000Y0355604D03*
M02*
