G75*
%MOIN*%
%OFA0B0*%
%FSLAX25Y25*%
%IPPOS*%
%LPD*%
%AMOC8*
5,1,8,0,0,1.08239X$1,22.5*
%
%ADD10C,0.07500*%
%ADD11OC8,0.07500*%
%ADD12C,0.07400*%
%ADD13C,0.06600*%
%ADD14C,0.11811*%
%ADD15C,0.07800*%
%ADD16R,0.02600X0.08000*%
%ADD17C,0.10000*%
%ADD18C,0.06000*%
%ADD19C,0.03962*%
%ADD20C,0.01600*%
%ADD21C,0.01500*%
%ADD22C,0.07600*%
%ADD23C,0.04000*%
%ADD24C,0.05600*%
%ADD25C,0.15000*%
%ADD26C,0.08600*%
%ADD27C,0.10000*%
D10*
X0193992Y0189163D03*
D11*
X0193992Y0169163D03*
D12*
X0162260Y0207510D03*
X0152260Y0207510D03*
X0142260Y0207510D03*
X0132260Y0207510D03*
X0122260Y0207510D03*
X0112260Y0207510D03*
X0102260Y0207510D03*
X0092260Y0207510D03*
X0082260Y0207510D03*
X0072260Y0207510D03*
X0062260Y0207510D03*
X0052260Y0207510D03*
X0042260Y0207510D03*
X0032260Y0207510D03*
X0022260Y0207510D03*
X0022260Y0266683D03*
X0032260Y0266683D03*
X0042260Y0266683D03*
X0052260Y0266683D03*
X0062260Y0266683D03*
X0072260Y0266683D03*
X0082260Y0266683D03*
X0092260Y0266683D03*
X0102260Y0266683D03*
X0112260Y0266683D03*
X0122260Y0266683D03*
X0132260Y0266683D03*
X0142260Y0266683D03*
X0152260Y0266683D03*
X0162260Y0266683D03*
X0106394Y0293848D03*
X0096394Y0293848D03*
X0086394Y0293848D03*
X0076394Y0293848D03*
X0066394Y0293848D03*
X0056394Y0293848D03*
X0046394Y0293848D03*
X0036394Y0293848D03*
X0036394Y0383219D03*
X0046394Y0383219D03*
X0056394Y0383219D03*
X0066394Y0383219D03*
X0076394Y0383219D03*
X0086394Y0383219D03*
X0096394Y0383219D03*
X0106394Y0383219D03*
X0152654Y0377234D03*
X0162654Y0377234D03*
X0172654Y0377234D03*
X0182654Y0377234D03*
X0203717Y0380620D03*
X0213717Y0380620D03*
X0223717Y0380620D03*
X0233717Y0380620D03*
X0233717Y0370620D03*
X0223717Y0370620D03*
X0213717Y0370620D03*
X0203717Y0370620D03*
X0156000Y0353337D03*
X0156000Y0343337D03*
X0156000Y0333337D03*
X0156000Y0323337D03*
X0267299Y0380463D03*
X0277299Y0380463D03*
X0287299Y0380463D03*
X0297299Y0380463D03*
X0349898Y0379596D03*
X0359898Y0379596D03*
X0369898Y0379596D03*
X0379898Y0379596D03*
X0379622Y0342549D03*
X0379622Y0332549D03*
X0379622Y0322549D03*
X0382654Y0271841D03*
X0372654Y0271841D03*
X0362654Y0271841D03*
X0352654Y0271841D03*
X0379858Y0247589D03*
X0379858Y0237589D03*
X0379858Y0227589D03*
X0379858Y0217589D03*
X0343008Y0218297D03*
X0343008Y0208297D03*
X0343008Y0198297D03*
X0372142Y0177746D03*
X0372142Y0149715D03*
D13*
X0372142Y0159715D03*
X0372142Y0167746D03*
D14*
X0371197Y0189478D02*
X0383008Y0189478D01*
X0383402Y0138022D02*
X0371591Y0138022D01*
D15*
X0268988Y0127130D02*
X0268988Y0119330D01*
X0245488Y0127330D02*
X0245488Y0135130D01*
X0221988Y0127130D02*
X0221988Y0119330D01*
X0201272Y0119330D02*
X0201272Y0127130D01*
X0177772Y0127330D02*
X0177772Y0135130D01*
X0154272Y0127130D02*
X0154272Y0119330D01*
X0133555Y0119330D02*
X0133555Y0127130D01*
X0110055Y0127330D02*
X0110055Y0135130D01*
X0086555Y0127130D02*
X0086555Y0119330D01*
X0065839Y0119330D02*
X0065839Y0127130D01*
X0042339Y0127330D02*
X0042339Y0135130D01*
X0018839Y0127130D02*
X0018839Y0119330D01*
X0018839Y0079130D02*
X0018839Y0071330D01*
X0065839Y0071330D02*
X0065839Y0079130D01*
X0086555Y0079130D02*
X0086555Y0071330D01*
X0133555Y0071330D02*
X0133555Y0079130D01*
X0154272Y0079130D02*
X0154272Y0071330D01*
X0201272Y0071330D02*
X0201272Y0079130D01*
X0221988Y0079130D02*
X0221988Y0071330D01*
X0268988Y0071330D02*
X0268988Y0079130D01*
D16*
X0092122Y0165489D03*
X0087122Y0165489D03*
X0082122Y0165489D03*
X0077122Y0165489D03*
X0072122Y0165489D03*
X0067122Y0165489D03*
X0062122Y0165489D03*
X0057122Y0165489D03*
X0057122Y0189689D03*
X0062122Y0189689D03*
X0067122Y0189689D03*
X0072122Y0189689D03*
X0077122Y0189689D03*
X0082122Y0189689D03*
X0087122Y0189689D03*
X0092122Y0189689D03*
D17*
X0016118Y0016880D03*
X0036118Y0016880D03*
X0056118Y0016880D03*
X0076118Y0016880D03*
X0096118Y0016880D03*
X0116118Y0016880D03*
D18*
X0336827Y0024785D02*
X0336827Y0030785D01*
X0348244Y0030864D02*
X0348244Y0024864D01*
X0348244Y0046596D02*
X0348244Y0052596D01*
X0336827Y0052518D02*
X0336827Y0046518D01*
X0336748Y0133211D02*
X0336748Y0139211D01*
X0336748Y0147463D02*
X0336748Y0153463D01*
X0348165Y0153935D02*
X0348165Y0147935D01*
X0348165Y0139289D02*
X0348165Y0133289D01*
D19*
X0091945Y0177195D03*
X0036433Y0293888D03*
D20*
X0052260Y0207510D02*
X0052181Y0207431D01*
X0052181Y0198061D01*
X0057122Y0193120D01*
X0057122Y0189689D01*
X0062122Y0189689D02*
X0062122Y0207372D01*
X0062260Y0207510D01*
X0067122Y0199222D02*
X0072260Y0204360D01*
X0072260Y0207510D01*
X0067122Y0199222D02*
X0067122Y0189689D01*
X0072122Y0189689D02*
X0072122Y0197136D01*
X0082260Y0207274D01*
X0082260Y0207510D01*
X0092122Y0189689D02*
X0094202Y0189689D01*
X0096276Y0191762D01*
X0091945Y0177195D02*
X0091945Y0168140D01*
X0072122Y0165489D02*
X0072122Y0160404D01*
X0073835Y0158691D01*
X0258480Y0158691D01*
X0268717Y0148455D01*
X0268717Y0123502D01*
X0268988Y0123230D01*
X0201394Y0123352D02*
X0201272Y0123230D01*
X0201394Y0123352D02*
X0201394Y0153573D01*
X0199819Y0155148D01*
X0073441Y0155148D01*
X0067122Y0161467D01*
X0067122Y0165489D01*
X0062122Y0165489D02*
X0062122Y0160561D01*
X0071472Y0151211D01*
X0130134Y0151211D01*
X0133677Y0147667D01*
X0133677Y0123352D01*
X0133555Y0123230D01*
X0065961Y0128770D02*
X0065567Y0128376D01*
X0065961Y0128770D02*
X0065961Y0146880D01*
X0057122Y0155719D01*
X0057122Y0165489D01*
D21*
X0091945Y0168140D02*
X0092500Y0168104D01*
X0092500Y0166604D01*
X0092122Y0165489D01*
X0065567Y0128376D02*
X0065500Y0127604D01*
X0065500Y0124604D01*
X0065839Y0123230D01*
X0032260Y0207510D02*
X0031000Y0208604D01*
X0031000Y0232604D01*
X0013000Y0250604D01*
X0013000Y0283604D01*
X0097000Y0367604D01*
X0128500Y0367604D01*
X0130000Y0363104D02*
X0154000Y0387104D01*
X0217000Y0387104D01*
X0223000Y0381104D01*
X0223717Y0380620D01*
X0223717Y0370620D02*
X0223000Y0370604D01*
X0208000Y0355604D01*
X0203717Y0370620D02*
X0203500Y0370604D01*
X0179500Y0370604D01*
X0173500Y0376604D01*
X0172654Y0377234D01*
X0172000Y0376604D01*
X0157000Y0361604D01*
X0157000Y0354104D01*
X0156000Y0353337D01*
X0155500Y0352604D01*
X0106000Y0352604D01*
X0049000Y0295604D01*
X0046394Y0293848D01*
X0056394Y0293848D02*
X0056500Y0292604D01*
X0062500Y0286604D01*
X0151000Y0286604D01*
X0218500Y0219104D01*
X0343000Y0219104D01*
X0343008Y0218297D01*
X0359500Y0211604D02*
X0263500Y0307604D01*
X0122500Y0307604D01*
X0109000Y0316604D02*
X0194500Y0316604D01*
X0265000Y0387104D01*
X0290500Y0387104D01*
X0296500Y0381104D01*
X0297299Y0380463D01*
X0298000Y0379604D01*
X0331000Y0379604D01*
X0346000Y0364604D01*
X0359500Y0378104D01*
X0359898Y0379596D01*
X0346000Y0364604D02*
X0346000Y0261104D01*
X0379000Y0228104D01*
X0379858Y0227589D01*
X0379858Y0217589D02*
X0379000Y0217604D01*
X0278500Y0318104D01*
X0272500Y0312104D01*
X0095500Y0312104D01*
X0077500Y0294104D01*
X0076394Y0293848D01*
X0032500Y0288104D02*
X0032500Y0267104D01*
X0032260Y0266683D01*
X0028000Y0273104D02*
X0019000Y0273104D01*
X0016000Y0270104D01*
X0016000Y0252104D01*
X0043000Y0225104D01*
X0085000Y0225104D01*
X0101500Y0208604D01*
X0102260Y0207510D01*
X0115000Y0229604D02*
X0127000Y0241604D01*
X0115000Y0229604D02*
X0044500Y0229604D01*
X0032500Y0288104D02*
X0029500Y0291104D01*
X0029500Y0295604D01*
X0097000Y0363104D01*
X0130000Y0363104D01*
X0053500Y0390104D02*
X0047500Y0384104D01*
X0046394Y0383219D01*
X0053500Y0390104D02*
X0379000Y0390104D01*
X0389500Y0379604D01*
X0389500Y0322604D01*
X0382000Y0315104D01*
X0377500Y0315104D01*
X0373000Y0319604D01*
X0373000Y0325604D01*
X0379000Y0331604D01*
X0379622Y0332549D01*
X0386500Y0328604D02*
X0380500Y0322604D01*
X0379622Y0322549D01*
X0386500Y0328604D02*
X0386500Y0345104D01*
X0380500Y0351104D01*
X0380500Y0378104D01*
X0379898Y0379596D01*
X0278500Y0379604D02*
X0278500Y0318104D01*
X0278500Y0379604D02*
X0277299Y0380463D01*
X0362654Y0271841D02*
X0364000Y0271604D01*
X0382000Y0253604D01*
X0383500Y0253604D01*
X0386500Y0250604D01*
X0386500Y0214604D01*
X0383500Y0211604D01*
X0359500Y0211604D01*
D22*
X0355724Y0206329D02*
X0353756Y0208297D01*
X0343008Y0208297D01*
X0343008Y0198297D02*
X0343126Y0198179D01*
X0343126Y0185463D01*
X0323047Y0165384D01*
X0349425Y0165384D01*
X0349425Y0151211D01*
X0361079Y0177746D02*
X0355724Y0183100D01*
X0355724Y0206329D01*
X0361079Y0177746D02*
X0372142Y0177746D01*
X0323047Y0165384D02*
X0193913Y0165384D01*
X0193992Y0165463D01*
X0193992Y0169163D01*
X0193913Y0165384D02*
X0158480Y0165384D01*
X0152260Y0171604D01*
X0152260Y0192549D01*
X0151472Y0191762D01*
X0096276Y0191762D01*
X0094701Y0191762D01*
X0094307Y0191368D01*
X0152260Y0192549D02*
X0152260Y0207510D01*
X0152260Y0227116D01*
X0132102Y0247274D01*
X0132102Y0266526D01*
X0132260Y0266683D01*
X0132260Y0277037D01*
X0129346Y0279951D01*
X0052575Y0279951D01*
X0046276Y0286250D01*
X0046276Y0293730D01*
X0046394Y0293848D01*
D23*
X0028000Y0273104D03*
X0044500Y0229604D03*
X0127000Y0241604D03*
X0122500Y0307604D03*
X0109000Y0316604D03*
X0128500Y0367604D03*
X0208000Y0355604D03*
D24*
X0245488Y0131230D02*
X0245488Y0123652D01*
X0245488Y0106722D02*
X0246669Y0105541D01*
X0245488Y0105935D02*
X0251394Y0100030D01*
X0288402Y0100030D01*
X0302181Y0086250D01*
X0302181Y0064596D01*
X0345488Y0064596D01*
X0348244Y0061841D01*
X0348244Y0049596D01*
X0349425Y0025226D02*
X0349425Y0017352D01*
X0116591Y0017352D01*
X0116118Y0016880D01*
D25*
X0096118Y0016880D02*
X0096118Y0037274D01*
X0110449Y0051604D01*
X0110449Y0096880D01*
X0110449Y0097667D01*
X0176197Y0097667D01*
X0239189Y0097667D01*
X0245488Y0103967D01*
D26*
X0245488Y0105935D01*
X0245488Y0106722D01*
X0245488Y0123652D01*
X0245488Y0127195D01*
X0246276Y0127982D01*
X0177772Y0131230D02*
X0177772Y0099242D01*
X0176197Y0097667D01*
X0110449Y0096880D02*
X0110055Y0097274D01*
X0110055Y0101211D01*
X0110055Y0131230D01*
D27*
X0109661Y0101604D02*
X0110055Y0101211D01*
X0109661Y0101604D02*
X0047457Y0101604D01*
X0042339Y0106722D01*
X0042339Y0131230D01*
M02*
