G75*
%MOIN*%
%OFA0B0*%
%FSLAX25Y25*%
%IPPOS*%
%LPD*%
%AMOC8*
5,1,8,0,0,1.08239X$1,22.5*
%
%ADD10C,0.00600*%
%ADD11R,0.08000X0.02000*%
%ADD12C,0.00800*%
%ADD13C,0.00500*%
%ADD14C,0.00400*%
%ADD15C,0.00300*%
%ADD16C,0.01000*%
D10*
X0013947Y0033202D02*
X0013947Y0040208D01*
X0010444Y0036705D01*
X0015114Y0036705D01*
X0030444Y0039040D02*
X0031611Y0040208D01*
X0033947Y0040208D01*
X0035114Y0039040D01*
X0035114Y0037873D01*
X0033947Y0036705D01*
X0035114Y0035537D01*
X0035114Y0034370D01*
X0033947Y0033202D01*
X0031611Y0033202D01*
X0030444Y0034370D01*
X0032779Y0036705D02*
X0033947Y0036705D01*
X0050444Y0039040D02*
X0051611Y0040208D01*
X0053947Y0040208D01*
X0055114Y0039040D01*
X0055114Y0037873D01*
X0050444Y0033202D01*
X0055114Y0033202D01*
X0072412Y0033596D02*
X0077083Y0033596D01*
X0074748Y0033596D02*
X0074748Y0040602D01*
X0072412Y0038266D01*
X0074839Y0052230D02*
X0009839Y0052230D01*
X0009839Y0141230D01*
X0074839Y0141230D01*
X0074839Y0052230D01*
X0077555Y0052230D02*
X0077555Y0141230D01*
X0142555Y0141230D01*
X0142555Y0052230D01*
X0077555Y0052230D01*
X0092019Y0040208D02*
X0092019Y0033202D01*
X0096689Y0033202D01*
X0111625Y0033635D02*
X0111625Y0040641D01*
X0116296Y0033635D01*
X0116296Y0040641D01*
X0145272Y0052230D02*
X0145272Y0141230D01*
X0210272Y0141230D01*
X0210272Y0052230D01*
X0145272Y0052230D01*
X0162972Y0075230D02*
X0175272Y0075230D01*
X0177772Y0077730D02*
X0177772Y0103730D01*
X0180272Y0106230D02*
X0175272Y0116230D01*
X0180272Y0116230D01*
X0177772Y0118730D02*
X0177772Y0122730D01*
X0180272Y0111230D02*
X0201272Y0111230D01*
X0201272Y0113730D01*
X0221988Y0113730D02*
X0221988Y0111230D01*
X0242988Y0111230D01*
X0247988Y0111230D02*
X0268988Y0111230D01*
X0268988Y0113730D01*
X0247988Y0116230D02*
X0242988Y0116230D01*
X0247988Y0106230D01*
X0245488Y0103730D02*
X0245488Y0077730D01*
X0242988Y0075230D02*
X0230688Y0075230D01*
X0247988Y0075230D02*
X0260188Y0075230D01*
X0277988Y0052230D02*
X0212988Y0052230D01*
X0212988Y0141230D01*
X0277988Y0141230D01*
X0277988Y0052230D01*
X0322159Y0045015D02*
X0329165Y0045015D01*
X0329165Y0049685D01*
X0329598Y0029606D02*
X0322592Y0029606D01*
X0322592Y0024936D02*
X0329598Y0029606D01*
X0329598Y0024936D02*
X0322592Y0024936D01*
X0245488Y0118730D02*
X0245488Y0122730D01*
X0192472Y0075230D02*
X0180272Y0075230D01*
X0175272Y0111230D02*
X0154272Y0111230D01*
X0154272Y0113730D01*
X0133555Y0113730D02*
X0133555Y0111230D01*
X0112555Y0111230D01*
X0112555Y0106230D02*
X0107555Y0116230D01*
X0112555Y0116230D01*
X0110055Y0118730D02*
X0110055Y0122730D01*
X0107555Y0111230D02*
X0086555Y0111230D01*
X0086555Y0113730D01*
X0065839Y0113730D02*
X0065839Y0111230D01*
X0044839Y0111230D01*
X0044839Y0106230D02*
X0039839Y0116230D01*
X0044839Y0116230D01*
X0042339Y0118730D02*
X0042339Y0122730D01*
X0039839Y0111230D02*
X0018839Y0111230D01*
X0018839Y0113730D01*
X0042339Y0103730D02*
X0042339Y0077730D01*
X0044839Y0075230D02*
X0057039Y0075230D01*
X0039839Y0075230D02*
X0027539Y0075230D01*
X0095255Y0075230D02*
X0107555Y0075230D01*
X0110055Y0077730D02*
X0110055Y0103730D01*
X0112555Y0075230D02*
X0124755Y0075230D01*
X0193992Y0173663D02*
X0193992Y0176663D01*
X0188704Y0170676D02*
X0188498Y0170807D01*
X0188296Y0170944D01*
X0188097Y0171086D01*
X0187901Y0171232D01*
X0187709Y0171383D01*
X0187521Y0171539D01*
X0187337Y0171699D01*
X0187157Y0171864D01*
X0186980Y0172033D01*
X0186808Y0172206D01*
X0186641Y0172384D01*
X0186477Y0172565D01*
X0186318Y0172751D01*
X0186164Y0172940D01*
X0186014Y0173133D01*
X0185869Y0173330D01*
X0185729Y0173530D01*
X0185594Y0173733D01*
X0185464Y0173940D01*
X0185339Y0174150D01*
X0185219Y0174363D01*
X0185105Y0174578D01*
X0184996Y0174797D01*
X0184892Y0175018D01*
X0184793Y0175241D01*
X0184700Y0175467D01*
X0184613Y0175695D01*
X0184531Y0175925D01*
X0184454Y0176157D01*
X0184384Y0176391D01*
X0184319Y0176627D01*
X0184260Y0176864D01*
X0184207Y0177102D01*
X0184159Y0177341D01*
X0184118Y0177582D01*
X0184082Y0177824D01*
X0184052Y0178066D01*
X0184029Y0178309D01*
X0184011Y0178553D01*
X0183999Y0178797D01*
X0183993Y0179041D01*
X0183993Y0179285D01*
X0183999Y0179529D01*
X0184011Y0179773D01*
X0184029Y0180017D01*
X0184052Y0180260D01*
X0184082Y0180502D01*
X0184118Y0180744D01*
X0184159Y0180985D01*
X0184207Y0181224D01*
X0184260Y0181462D01*
X0184319Y0181699D01*
X0184384Y0181935D01*
X0184454Y0182169D01*
X0184531Y0182401D01*
X0184613Y0182631D01*
X0184700Y0182859D01*
X0184793Y0183085D01*
X0184892Y0183308D01*
X0184996Y0183529D01*
X0185105Y0183748D01*
X0185219Y0183963D01*
X0185339Y0184176D01*
X0185464Y0184386D01*
X0185594Y0184593D01*
X0185729Y0184796D01*
X0185869Y0184996D01*
X0186014Y0185193D01*
X0186164Y0185386D01*
X0186318Y0185575D01*
X0186477Y0185761D01*
X0186641Y0185942D01*
X0186808Y0186120D01*
X0186980Y0186293D01*
X0187157Y0186462D01*
X0187337Y0186627D01*
X0187521Y0186787D01*
X0187709Y0186943D01*
X0187901Y0187094D01*
X0188097Y0187240D01*
X0188296Y0187382D01*
X0188498Y0187519D01*
X0188704Y0187650D01*
X0193992Y0184663D02*
X0193992Y0182163D01*
X0197992Y0182163D01*
X0197992Y0180163D01*
X0189992Y0180163D01*
X0189992Y0182163D01*
X0193992Y0182163D01*
X0195492Y0184163D02*
X0197492Y0184163D01*
X0196492Y0185163D02*
X0196492Y0183163D01*
X0199280Y0187650D02*
X0199486Y0187519D01*
X0199688Y0187382D01*
X0199887Y0187240D01*
X0200083Y0187094D01*
X0200275Y0186943D01*
X0200463Y0186787D01*
X0200647Y0186627D01*
X0200827Y0186462D01*
X0201004Y0186293D01*
X0201176Y0186120D01*
X0201343Y0185942D01*
X0201507Y0185761D01*
X0201666Y0185575D01*
X0201820Y0185386D01*
X0201970Y0185193D01*
X0202115Y0184996D01*
X0202255Y0184796D01*
X0202390Y0184593D01*
X0202520Y0184386D01*
X0202645Y0184176D01*
X0202765Y0183963D01*
X0202879Y0183748D01*
X0202988Y0183529D01*
X0203092Y0183308D01*
X0203191Y0183085D01*
X0203284Y0182859D01*
X0203371Y0182631D01*
X0203453Y0182401D01*
X0203530Y0182169D01*
X0203600Y0181935D01*
X0203665Y0181699D01*
X0203724Y0181462D01*
X0203777Y0181224D01*
X0203825Y0180985D01*
X0203866Y0180744D01*
X0203902Y0180502D01*
X0203932Y0180260D01*
X0203955Y0180017D01*
X0203973Y0179773D01*
X0203985Y0179529D01*
X0203991Y0179285D01*
X0203991Y0179041D01*
X0203985Y0178797D01*
X0203973Y0178553D01*
X0203955Y0178309D01*
X0203932Y0178066D01*
X0203902Y0177824D01*
X0203866Y0177582D01*
X0203825Y0177341D01*
X0203777Y0177102D01*
X0203724Y0176864D01*
X0203665Y0176627D01*
X0203600Y0176391D01*
X0203530Y0176157D01*
X0203453Y0175925D01*
X0203371Y0175695D01*
X0203284Y0175467D01*
X0203191Y0175241D01*
X0203092Y0175018D01*
X0202988Y0174797D01*
X0202879Y0174578D01*
X0202765Y0174363D01*
X0202645Y0174150D01*
X0202520Y0173940D01*
X0202390Y0173733D01*
X0202255Y0173530D01*
X0202115Y0173330D01*
X0201970Y0173133D01*
X0201820Y0172940D01*
X0201666Y0172751D01*
X0201507Y0172565D01*
X0201343Y0172384D01*
X0201176Y0172206D01*
X0201004Y0172033D01*
X0200827Y0171864D01*
X0200647Y0171699D01*
X0200463Y0171539D01*
X0200275Y0171383D01*
X0200083Y0171232D01*
X0199887Y0171086D01*
X0199688Y0170944D01*
X0199486Y0170807D01*
X0199280Y0170676D01*
X0318852Y0159836D02*
X0318852Y0156333D01*
X0325857Y0156333D01*
X0325857Y0159836D01*
X0324690Y0161004D01*
X0320019Y0161004D01*
X0318852Y0159836D01*
X0318852Y0154006D02*
X0325857Y0154006D01*
X0318852Y0149335D01*
X0325857Y0149335D01*
X0324690Y0147008D02*
X0322354Y0147008D01*
X0322354Y0144673D01*
X0320019Y0147008D02*
X0318852Y0145840D01*
X0318852Y0143505D01*
X0320019Y0142337D01*
X0324690Y0142337D01*
X0325857Y0143505D01*
X0325857Y0145840D01*
X0324690Y0147008D01*
X0323916Y0140847D02*
X0319245Y0140847D01*
X0323916Y0140847D02*
X0326251Y0138511D01*
X0323916Y0136176D01*
X0319245Y0136176D01*
X0319245Y0133849D02*
X0319245Y0129178D01*
X0322748Y0129178D01*
X0321581Y0131513D01*
X0321581Y0132681D01*
X0322748Y0133849D01*
X0325084Y0133849D01*
X0326251Y0132681D01*
X0326251Y0130346D01*
X0325084Y0129178D01*
X0322748Y0126851D02*
X0322748Y0122180D01*
X0320413Y0124515D02*
X0325084Y0124515D01*
X0012511Y0219621D02*
X0006106Y0219621D01*
X0008241Y0221756D01*
X0006106Y0223891D01*
X0012511Y0223891D01*
X0012511Y0226066D02*
X0012511Y0228202D01*
X0012511Y0227134D02*
X0008241Y0227134D01*
X0008241Y0226066D01*
X0006106Y0227134D02*
X0005038Y0227134D01*
X0008241Y0230363D02*
X0008241Y0233566D01*
X0009308Y0234634D01*
X0012511Y0234634D01*
X0012511Y0236809D02*
X0012511Y0238944D01*
X0012511Y0237876D02*
X0008241Y0237876D01*
X0008241Y0236809D01*
X0006106Y0237876D02*
X0005038Y0237876D01*
X0008241Y0230363D02*
X0012511Y0230363D01*
X0011443Y0247551D02*
X0006106Y0247551D01*
X0006106Y0251822D02*
X0011443Y0251822D01*
X0012511Y0250754D01*
X0012511Y0248619D01*
X0011443Y0247551D01*
X0011443Y0253997D02*
X0012511Y0255064D01*
X0012511Y0257200D01*
X0011443Y0258267D01*
X0010376Y0258267D01*
X0009308Y0257200D01*
X0009308Y0255064D01*
X0008241Y0253997D01*
X0007173Y0253997D01*
X0006106Y0255064D01*
X0006106Y0257200D01*
X0007173Y0258267D01*
X0006106Y0260442D02*
X0006106Y0263645D01*
X0007173Y0264713D01*
X0008241Y0264713D01*
X0009308Y0263645D01*
X0009308Y0260442D01*
X0006106Y0260442D02*
X0012511Y0260442D01*
X0012511Y0263645D01*
X0011443Y0264713D01*
X0010376Y0264713D01*
X0009308Y0263645D01*
D11*
X0193992Y0177163D03*
D12*
X0167260Y0205010D02*
X0164760Y0202510D01*
X0159760Y0202510D01*
X0157260Y0205010D01*
X0154760Y0202510D01*
X0149760Y0202510D01*
X0147260Y0205010D01*
X0144760Y0202510D01*
X0139760Y0202510D01*
X0137260Y0205010D01*
X0134760Y0202510D01*
X0129760Y0202510D01*
X0127260Y0205010D01*
X0124760Y0202510D01*
X0119760Y0202510D01*
X0117260Y0205010D01*
X0114760Y0202510D01*
X0109760Y0202510D01*
X0107260Y0205010D01*
X0104760Y0202510D01*
X0099760Y0202510D01*
X0097260Y0205010D01*
X0094760Y0202510D01*
X0089760Y0202510D01*
X0087260Y0205010D01*
X0084760Y0202510D01*
X0079760Y0202510D01*
X0077260Y0205010D01*
X0074760Y0202510D01*
X0069760Y0202510D01*
X0067260Y0205010D01*
X0064760Y0202510D01*
X0059760Y0202510D01*
X0057260Y0205010D01*
X0054760Y0202510D01*
X0049760Y0202510D01*
X0047260Y0205010D01*
X0044760Y0202510D01*
X0039760Y0202510D01*
X0037260Y0205010D01*
X0034760Y0202510D01*
X0029760Y0202510D01*
X0027260Y0205010D01*
X0024760Y0202510D01*
X0019760Y0202510D01*
X0017260Y0205010D01*
X0017260Y0210010D01*
X0019760Y0212510D01*
X0024760Y0212510D01*
X0027260Y0210010D01*
X0029760Y0212510D01*
X0034760Y0212510D01*
X0037260Y0210010D01*
X0039760Y0212510D01*
X0044760Y0212510D01*
X0047260Y0210010D01*
X0049760Y0212510D01*
X0054760Y0212510D01*
X0057260Y0210010D01*
X0059760Y0212510D01*
X0064760Y0212510D01*
X0067260Y0210010D01*
X0069760Y0212510D01*
X0074760Y0212510D01*
X0077260Y0210010D01*
X0079760Y0212510D01*
X0084760Y0212510D01*
X0087260Y0210010D01*
X0089760Y0212510D01*
X0094760Y0212510D01*
X0097260Y0210010D01*
X0099760Y0212510D01*
X0104760Y0212510D01*
X0107260Y0210010D01*
X0109760Y0212510D01*
X0114760Y0212510D01*
X0117260Y0210010D01*
X0119760Y0212510D01*
X0124760Y0212510D01*
X0127260Y0210010D01*
X0129760Y0212510D01*
X0134760Y0212510D01*
X0137260Y0210010D01*
X0139760Y0212510D01*
X0144760Y0212510D01*
X0147260Y0210010D01*
X0149760Y0212510D01*
X0154760Y0212510D01*
X0157260Y0210010D01*
X0159760Y0212510D01*
X0164760Y0212510D01*
X0167260Y0210010D01*
X0167260Y0205010D01*
X0164760Y0261683D02*
X0159760Y0261683D01*
X0157260Y0264183D01*
X0154760Y0261683D01*
X0149760Y0261683D01*
X0147260Y0264183D01*
X0144760Y0261683D01*
X0139760Y0261683D01*
X0137260Y0264183D01*
X0134760Y0261683D01*
X0129760Y0261683D01*
X0127260Y0264183D01*
X0124760Y0261683D01*
X0119760Y0261683D01*
X0117260Y0264183D01*
X0114760Y0261683D01*
X0109760Y0261683D01*
X0107260Y0264183D01*
X0104760Y0261683D01*
X0099760Y0261683D01*
X0097260Y0264183D01*
X0094760Y0261683D01*
X0089760Y0261683D01*
X0087260Y0264183D01*
X0084760Y0261683D01*
X0079760Y0261683D01*
X0077260Y0264183D01*
X0074760Y0261683D01*
X0069760Y0261683D01*
X0067260Y0264183D01*
X0064760Y0261683D01*
X0059760Y0261683D01*
X0057260Y0264183D01*
X0054760Y0261683D01*
X0049760Y0261683D01*
X0047260Y0264183D01*
X0044760Y0261683D01*
X0039760Y0261683D01*
X0037260Y0264183D01*
X0034760Y0261683D01*
X0029760Y0261683D01*
X0027260Y0264183D01*
X0024760Y0261683D01*
X0019760Y0261683D01*
X0017260Y0264183D01*
X0017260Y0269183D01*
X0019760Y0271683D01*
X0024760Y0271683D01*
X0027260Y0269183D01*
X0029760Y0271683D01*
X0034760Y0271683D01*
X0037260Y0269183D01*
X0039760Y0271683D01*
X0044760Y0271683D01*
X0047260Y0269183D01*
X0049760Y0271683D01*
X0054760Y0271683D01*
X0057260Y0269183D01*
X0059760Y0271683D01*
X0064760Y0271683D01*
X0067260Y0269183D01*
X0069760Y0271683D01*
X0074760Y0271683D01*
X0077260Y0269183D01*
X0079760Y0271683D01*
X0084760Y0271683D01*
X0087260Y0269183D01*
X0089760Y0271683D01*
X0094760Y0271683D01*
X0097260Y0269183D01*
X0099760Y0271683D01*
X0104760Y0271683D01*
X0107260Y0269183D01*
X0109760Y0271683D01*
X0114760Y0271683D01*
X0117260Y0269183D01*
X0119760Y0271683D01*
X0124760Y0271683D01*
X0127260Y0269183D01*
X0129760Y0271683D01*
X0134760Y0271683D01*
X0137260Y0269183D01*
X0139760Y0271683D01*
X0144760Y0271683D01*
X0147260Y0269183D01*
X0149760Y0271683D01*
X0154760Y0271683D01*
X0157260Y0269183D01*
X0159760Y0271683D01*
X0164760Y0271683D01*
X0167260Y0269183D01*
X0167260Y0264183D01*
X0164760Y0261683D01*
X0111394Y0291348D02*
X0108894Y0288848D01*
X0103894Y0288848D01*
X0101394Y0291348D01*
X0098894Y0288848D01*
X0093894Y0288848D01*
X0091394Y0291348D01*
X0088894Y0288848D01*
X0083894Y0288848D01*
X0081394Y0291348D01*
X0078894Y0288848D01*
X0073894Y0288848D01*
X0071394Y0291348D01*
X0068894Y0288848D01*
X0063894Y0288848D01*
X0061394Y0291348D01*
X0058894Y0288848D01*
X0053894Y0288848D01*
X0051394Y0291348D01*
X0048894Y0288848D01*
X0043894Y0288848D01*
X0041394Y0291348D01*
X0038894Y0288848D01*
X0033894Y0288848D01*
X0031394Y0291348D01*
X0031394Y0296348D01*
X0033894Y0298848D01*
X0038894Y0298848D01*
X0041394Y0296348D01*
X0043894Y0298848D01*
X0048894Y0298848D01*
X0051394Y0296348D01*
X0053894Y0298848D01*
X0058894Y0298848D01*
X0061394Y0296348D01*
X0063894Y0298848D01*
X0068894Y0298848D01*
X0071394Y0296348D01*
X0073894Y0298848D01*
X0078894Y0298848D01*
X0081394Y0296348D01*
X0083894Y0298848D01*
X0088894Y0298848D01*
X0091394Y0296348D01*
X0093894Y0298848D01*
X0098894Y0298848D01*
X0101394Y0296348D01*
X0103894Y0298848D01*
X0108894Y0298848D01*
X0111394Y0296348D01*
X0111394Y0291348D01*
X0151000Y0320837D02*
X0153500Y0318337D01*
X0158500Y0318337D01*
X0161000Y0320837D01*
X0161000Y0325837D01*
X0158500Y0328337D01*
X0161000Y0330837D01*
X0161000Y0335837D01*
X0158500Y0338337D01*
X0161000Y0340837D01*
X0161000Y0345837D01*
X0158500Y0348337D01*
X0161000Y0350837D01*
X0161000Y0355837D01*
X0158500Y0358337D01*
X0153500Y0358337D01*
X0151000Y0355837D01*
X0151000Y0350837D01*
X0153500Y0348337D01*
X0151000Y0345837D01*
X0151000Y0340837D01*
X0153500Y0338337D01*
X0151000Y0335837D01*
X0151000Y0330837D01*
X0153500Y0328337D01*
X0151000Y0325837D01*
X0151000Y0320837D01*
X0162000Y0320837D02*
X0162000Y0325837D01*
X0201217Y0364620D02*
X0206217Y0364620D01*
X0206217Y0365620D02*
X0201217Y0365620D01*
X0198717Y0368120D01*
X0198717Y0383120D01*
X0201217Y0385620D01*
X0206217Y0385620D01*
X0208717Y0383120D01*
X0211217Y0385620D01*
X0216217Y0385620D01*
X0218717Y0383120D01*
X0221217Y0385620D01*
X0226217Y0385620D01*
X0228717Y0383120D01*
X0231217Y0385620D01*
X0236217Y0385620D01*
X0238717Y0383120D01*
X0238717Y0368120D01*
X0236217Y0365620D01*
X0231217Y0365620D01*
X0228717Y0368120D01*
X0226217Y0365620D01*
X0221217Y0365620D01*
X0218717Y0368120D01*
X0216217Y0365620D01*
X0211217Y0365620D01*
X0208717Y0368120D01*
X0206217Y0365620D01*
X0187654Y0374734D02*
X0187654Y0379734D01*
X0185154Y0382234D01*
X0180154Y0382234D01*
X0177654Y0379734D01*
X0175154Y0382234D01*
X0170154Y0382234D01*
X0167654Y0379734D01*
X0165154Y0382234D01*
X0160154Y0382234D01*
X0157654Y0379734D01*
X0155154Y0382234D01*
X0150154Y0382234D01*
X0147654Y0379734D01*
X0147654Y0374734D01*
X0150154Y0372234D01*
X0155154Y0372234D01*
X0157654Y0374734D01*
X0160154Y0372234D01*
X0165154Y0372234D01*
X0167654Y0374734D01*
X0170154Y0372234D01*
X0175154Y0372234D01*
X0177654Y0374734D01*
X0180154Y0372234D01*
X0185154Y0372234D01*
X0187654Y0374734D01*
X0155154Y0371234D02*
X0150154Y0371234D01*
X0111394Y0380719D02*
X0108894Y0378219D01*
X0103894Y0378219D01*
X0101394Y0380719D01*
X0098894Y0378219D01*
X0093894Y0378219D01*
X0091394Y0380719D01*
X0088894Y0378219D01*
X0083894Y0378219D01*
X0081394Y0380719D01*
X0078894Y0378219D01*
X0073894Y0378219D01*
X0071394Y0380719D01*
X0068894Y0378219D01*
X0063894Y0378219D01*
X0061394Y0380719D01*
X0058894Y0378219D01*
X0053894Y0378219D01*
X0051394Y0380719D01*
X0048894Y0378219D01*
X0043894Y0378219D01*
X0041394Y0380719D01*
X0038894Y0378219D01*
X0033894Y0378219D01*
X0031394Y0380719D01*
X0031394Y0385719D01*
X0033894Y0388219D01*
X0038894Y0388219D01*
X0041394Y0385719D01*
X0043894Y0388219D01*
X0048894Y0388219D01*
X0051394Y0385719D01*
X0053894Y0388219D01*
X0058894Y0388219D01*
X0061394Y0385719D01*
X0063894Y0388219D01*
X0068894Y0388219D01*
X0071394Y0385719D01*
X0073894Y0388219D01*
X0078894Y0388219D01*
X0081394Y0385719D01*
X0083894Y0388219D01*
X0088894Y0388219D01*
X0091394Y0385719D01*
X0093894Y0388219D01*
X0098894Y0388219D01*
X0101394Y0385719D01*
X0103894Y0388219D01*
X0108894Y0388219D01*
X0111394Y0385719D01*
X0111394Y0380719D01*
X0038894Y0377219D02*
X0033894Y0377219D01*
X0033894Y0287848D02*
X0038894Y0287848D01*
X0262299Y0377963D02*
X0262299Y0382963D01*
X0264799Y0385463D01*
X0269799Y0385463D01*
X0272299Y0382963D01*
X0274799Y0385463D01*
X0279799Y0385463D01*
X0282299Y0382963D01*
X0284799Y0385463D01*
X0289799Y0385463D01*
X0292299Y0382963D01*
X0294799Y0385463D01*
X0299799Y0385463D01*
X0302299Y0382963D01*
X0302299Y0377963D01*
X0299799Y0375463D01*
X0294799Y0375463D01*
X0292299Y0377963D01*
X0289799Y0375463D01*
X0284799Y0375463D01*
X0282299Y0377963D01*
X0279799Y0375463D01*
X0274799Y0375463D01*
X0272299Y0377963D01*
X0269799Y0375463D01*
X0264799Y0375463D01*
X0262299Y0377963D01*
X0264799Y0374463D02*
X0269799Y0374463D01*
X0344898Y0377096D02*
X0347398Y0374596D01*
X0352398Y0374596D01*
X0354898Y0377096D01*
X0357398Y0374596D01*
X0362398Y0374596D01*
X0364898Y0377096D01*
X0367398Y0374596D01*
X0372398Y0374596D01*
X0374898Y0377096D01*
X0377398Y0374596D01*
X0382398Y0374596D01*
X0384898Y0377096D01*
X0384898Y0382096D01*
X0382398Y0384596D01*
X0377398Y0384596D01*
X0374898Y0382096D01*
X0372398Y0384596D01*
X0367398Y0384596D01*
X0364898Y0382096D01*
X0362398Y0384596D01*
X0357398Y0384596D01*
X0354898Y0382096D01*
X0352398Y0384596D01*
X0347398Y0384596D01*
X0344898Y0382096D01*
X0344898Y0377096D01*
X0377398Y0385596D02*
X0382398Y0385596D01*
X0382122Y0347549D02*
X0377122Y0347549D01*
X0374622Y0345049D01*
X0374622Y0340049D01*
X0377122Y0337549D01*
X0374622Y0335049D01*
X0374622Y0330049D01*
X0377122Y0327549D01*
X0374622Y0325049D01*
X0374622Y0320049D01*
X0377122Y0317549D01*
X0382122Y0317549D01*
X0384622Y0320049D01*
X0384622Y0325049D01*
X0382122Y0327549D01*
X0384622Y0330049D01*
X0384622Y0335049D01*
X0382122Y0337549D01*
X0384622Y0340049D01*
X0384622Y0345049D01*
X0382122Y0347549D01*
X0385622Y0325049D02*
X0385622Y0320049D01*
X0385154Y0276841D02*
X0380154Y0276841D01*
X0377654Y0274341D01*
X0375154Y0276841D01*
X0370154Y0276841D01*
X0367654Y0274341D01*
X0365154Y0276841D01*
X0360154Y0276841D01*
X0357654Y0274341D01*
X0355154Y0276841D01*
X0350154Y0276841D01*
X0347654Y0274341D01*
X0347654Y0269341D01*
X0350154Y0266841D01*
X0355154Y0266841D01*
X0357654Y0269341D01*
X0360154Y0266841D01*
X0365154Y0266841D01*
X0367654Y0269341D01*
X0370154Y0266841D01*
X0375154Y0266841D01*
X0377654Y0269341D01*
X0380154Y0266841D01*
X0385154Y0266841D01*
X0387654Y0269341D01*
X0387654Y0274341D01*
X0385154Y0276841D01*
X0382358Y0252589D02*
X0377358Y0252589D01*
X0374858Y0250089D01*
X0374858Y0245089D01*
X0377358Y0242589D01*
X0374858Y0240089D01*
X0374858Y0235089D01*
X0377358Y0232589D01*
X0374858Y0230089D01*
X0374858Y0225089D01*
X0377358Y0222589D01*
X0374858Y0220089D01*
X0374858Y0215089D01*
X0377358Y0212589D01*
X0382358Y0212589D01*
X0384858Y0215089D01*
X0384858Y0220089D01*
X0382358Y0222589D01*
X0384858Y0225089D01*
X0384858Y0230089D01*
X0382358Y0232589D01*
X0384858Y0235089D01*
X0384858Y0240089D01*
X0382358Y0242589D01*
X0384858Y0245089D01*
X0384858Y0250089D01*
X0382358Y0252589D01*
X0373858Y0250089D02*
X0373858Y0245089D01*
X0353146Y0225817D02*
X0337909Y0225817D01*
X0338008Y0225797D02*
X0338008Y0190797D01*
X0337909Y0190778D02*
X0353146Y0190778D01*
X0353008Y0190797D02*
X0353008Y0225797D01*
X0348008Y0225797D02*
X0348008Y0190797D01*
X0367142Y0180246D02*
X0367142Y0175246D01*
X0369642Y0172746D01*
X0367142Y0170246D01*
X0367142Y0165246D01*
X0367142Y0162215D02*
X0367142Y0157215D01*
X0369642Y0154715D01*
X0367142Y0152215D01*
X0367142Y0147215D01*
X0369642Y0144715D01*
X0374642Y0144715D01*
X0377142Y0147215D01*
X0377142Y0152215D01*
X0374642Y0154715D01*
X0377142Y0157215D01*
X0377142Y0162215D01*
X0377142Y0165246D02*
X0377142Y0170246D01*
X0374642Y0172746D01*
X0377142Y0175246D01*
X0377142Y0180246D01*
X0374642Y0182746D01*
X0369642Y0182746D01*
X0367142Y0180246D01*
X0378142Y0152215D02*
X0378142Y0147215D01*
X0355154Y0265841D02*
X0350154Y0265841D01*
X0118618Y0022880D02*
X0113618Y0022880D01*
D13*
X0128008Y0001250D02*
X0005016Y0001250D01*
X0005016Y0032746D01*
X0128008Y0032746D01*
X0128008Y0001250D01*
X0285843Y0017077D02*
X0350803Y0017077D01*
X0350803Y0159124D01*
X0285843Y0159124D01*
X0285843Y0017077D01*
X0364386Y0138219D02*
X0364386Y0189400D01*
X0391945Y0189400D01*
X0391945Y0138219D01*
X0364386Y0138219D01*
X0373047Y0213022D02*
X0373047Y0252392D01*
X0424228Y0252392D01*
X0424228Y0213022D01*
X0373047Y0213022D01*
X0347890Y0265974D02*
X0347890Y0301407D01*
X0434661Y0301407D01*
X0434661Y0265974D01*
X0347890Y0265974D01*
X0371866Y0308691D02*
X0497850Y0308691D01*
X0497850Y0359872D01*
X0371866Y0359872D01*
X0371866Y0308691D01*
X0413835Y0373022D02*
X0316591Y0373022D01*
X0316591Y0479321D01*
X0413835Y0479321D01*
X0413835Y0373022D01*
X0255724Y0363809D02*
X0255724Y0476407D01*
X0195488Y0476407D01*
X0195488Y0363809D01*
X0255724Y0363809D01*
X0169228Y0358848D02*
X0169228Y0317746D01*
X0148244Y0317746D01*
X0148244Y0358848D01*
X0169228Y0358848D01*
X0138165Y0393888D02*
X0002575Y0393888D01*
X0002575Y0279951D01*
X0138165Y0279951D01*
X0138165Y0393888D01*
X0179740Y0278376D02*
X0179740Y0199636D01*
X0002575Y0199636D01*
X0002575Y0278376D01*
X0179740Y0278376D01*
D14*
X0132383Y0338143D02*
X0132383Y0342747D01*
X0133917Y0342747D02*
X0130848Y0342747D01*
X0129313Y0342747D02*
X0129313Y0338143D01*
X0126244Y0342747D01*
X0126244Y0338143D01*
X0124709Y0338143D02*
X0124709Y0341212D01*
X0123175Y0342747D01*
X0121640Y0341212D01*
X0121640Y0338143D01*
X0121640Y0340445D02*
X0124709Y0340445D01*
X0111324Y0336883D02*
X0109790Y0336883D01*
X0110557Y0336883D02*
X0110557Y0339952D01*
X0109790Y0339952D01*
X0110557Y0341487D02*
X0110557Y0342254D01*
X0108255Y0339185D02*
X0108255Y0336883D01*
X0108255Y0339185D02*
X0107488Y0339952D01*
X0105186Y0339952D01*
X0105186Y0336883D01*
X0103651Y0336883D02*
X0102116Y0336883D01*
X0102884Y0336883D02*
X0102884Y0339952D01*
X0102116Y0339952D01*
X0100582Y0339185D02*
X0100582Y0336883D01*
X0099047Y0336883D02*
X0099047Y0339185D01*
X0099814Y0339952D01*
X0100582Y0339185D01*
X0099047Y0339185D02*
X0098280Y0339952D01*
X0097512Y0339952D01*
X0097512Y0336883D01*
X0091374Y0336883D02*
X0088305Y0336883D01*
X0089839Y0336883D02*
X0089839Y0341487D01*
X0088305Y0339952D01*
X0086770Y0340720D02*
X0086003Y0341487D01*
X0083701Y0341487D01*
X0083701Y0336883D01*
X0086003Y0336883D01*
X0086770Y0337650D01*
X0086770Y0340720D01*
X0077562Y0341487D02*
X0076027Y0340720D01*
X0074493Y0339185D01*
X0076795Y0339185D01*
X0077562Y0338418D01*
X0077562Y0337650D01*
X0076795Y0336883D01*
X0075260Y0336883D01*
X0074493Y0337650D01*
X0074493Y0339185D01*
X0072958Y0338418D02*
X0072191Y0339185D01*
X0069889Y0339185D01*
X0069889Y0337650D01*
X0070656Y0336883D01*
X0072191Y0336883D01*
X0072958Y0337650D01*
X0072958Y0338418D01*
X0071424Y0340720D02*
X0069889Y0339185D01*
X0068354Y0339952D02*
X0068354Y0340720D01*
X0067587Y0341487D01*
X0066052Y0341487D01*
X0065285Y0340720D01*
X0063750Y0340720D02*
X0062983Y0341487D01*
X0061448Y0341487D01*
X0060681Y0340720D01*
X0060681Y0339952D01*
X0061448Y0339185D01*
X0062983Y0339185D01*
X0063750Y0338418D01*
X0063750Y0337650D01*
X0062983Y0336883D01*
X0061448Y0336883D01*
X0060681Y0337650D01*
X0060681Y0338418D01*
X0061448Y0339185D01*
X0062983Y0339185D02*
X0063750Y0339952D01*
X0063750Y0340720D01*
X0065285Y0336883D02*
X0068354Y0339952D01*
X0068354Y0336883D02*
X0065285Y0336883D01*
X0071424Y0340720D02*
X0072958Y0341487D01*
X0059146Y0340720D02*
X0059146Y0339185D01*
X0058379Y0338418D01*
X0056077Y0338418D01*
X0054542Y0338418D02*
X0054542Y0337650D01*
X0053775Y0336883D01*
X0052241Y0336883D01*
X0051473Y0337650D01*
X0049939Y0336883D02*
X0046869Y0336883D01*
X0046869Y0341487D01*
X0049939Y0341487D01*
X0051473Y0340720D02*
X0052241Y0341487D01*
X0053775Y0341487D01*
X0054542Y0340720D01*
X0053775Y0339185D02*
X0054542Y0338418D01*
X0053775Y0339185D02*
X0052241Y0339185D01*
X0051473Y0339952D01*
X0051473Y0340720D01*
X0048404Y0339185D02*
X0046869Y0339185D01*
X0056077Y0336883D02*
X0056077Y0341487D01*
X0058379Y0341487D01*
X0059146Y0340720D01*
X0017808Y0341074D02*
X0017808Y0340307D01*
X0017041Y0339539D01*
X0014739Y0339539D01*
X0013204Y0338772D02*
X0013204Y0338005D01*
X0012437Y0337237D01*
X0010902Y0337237D01*
X0010135Y0338005D01*
X0008600Y0338005D02*
X0008600Y0341841D01*
X0010135Y0341074D02*
X0010135Y0340307D01*
X0010902Y0339539D01*
X0012437Y0339539D01*
X0013204Y0338772D01*
X0014739Y0337237D02*
X0017041Y0337237D01*
X0017808Y0338005D01*
X0017808Y0338772D01*
X0017041Y0339539D01*
X0017808Y0341074D02*
X0017041Y0341841D01*
X0014739Y0341841D01*
X0014739Y0337237D01*
X0013204Y0341074D02*
X0012437Y0341841D01*
X0010902Y0341841D01*
X0010135Y0341074D01*
X0008600Y0338005D02*
X0007833Y0337237D01*
X0006298Y0337237D01*
X0005531Y0338005D01*
X0005531Y0341841D01*
X0025900Y0286861D02*
X0025900Y0283792D01*
X0024365Y0285327D02*
X0027435Y0285327D01*
X0028969Y0285327D02*
X0030504Y0286094D01*
X0031271Y0286094D01*
X0032039Y0285327D01*
X0032039Y0283792D01*
X0031271Y0283025D01*
X0029737Y0283025D01*
X0028969Y0283792D01*
X0028969Y0285327D02*
X0028969Y0287629D01*
X0032039Y0287629D01*
X0033573Y0286094D02*
X0035108Y0283025D01*
X0036642Y0286094D01*
X0102884Y0341487D02*
X0102884Y0342254D01*
X0149625Y0383222D02*
X0149625Y0386291D01*
X0151160Y0387826D01*
X0152694Y0386291D01*
X0152694Y0383222D01*
X0154229Y0383989D02*
X0157298Y0387058D01*
X0157298Y0383989D01*
X0156531Y0383222D01*
X0154996Y0383222D01*
X0154229Y0383989D01*
X0154229Y0387058D01*
X0154996Y0387826D01*
X0156531Y0387826D01*
X0157298Y0387058D01*
X0159468Y0387826D02*
X0161770Y0387826D01*
X0162537Y0387058D01*
X0162537Y0383989D01*
X0161770Y0383222D01*
X0159468Y0383222D01*
X0159468Y0387826D01*
X0164072Y0387058D02*
X0164072Y0383989D01*
X0167141Y0387058D01*
X0167141Y0383989D01*
X0166374Y0383222D01*
X0164839Y0383222D01*
X0164072Y0383989D01*
X0164072Y0387058D02*
X0164839Y0387826D01*
X0166374Y0387826D01*
X0167141Y0387058D01*
X0171279Y0387058D02*
X0171279Y0383989D01*
X0172046Y0383222D01*
X0173581Y0383222D01*
X0174348Y0383989D01*
X0174348Y0385524D01*
X0172813Y0385524D01*
X0171279Y0387058D02*
X0172046Y0387826D01*
X0173581Y0387826D01*
X0174348Y0387058D01*
X0181121Y0387826D02*
X0181121Y0384756D01*
X0182656Y0383222D01*
X0184191Y0384756D01*
X0184191Y0387826D01*
X0177903Y0370917D02*
X0177903Y0367847D01*
X0178671Y0367080D01*
X0178671Y0370149D02*
X0177136Y0370149D01*
X0175602Y0369382D02*
X0174834Y0370149D01*
X0173300Y0370149D01*
X0172532Y0369382D01*
X0170998Y0370149D02*
X0170998Y0366313D01*
X0170230Y0365545D01*
X0169463Y0365545D01*
X0168696Y0367080D02*
X0170998Y0367080D01*
X0172532Y0367080D02*
X0172532Y0371684D01*
X0170998Y0370149D02*
X0168696Y0370149D01*
X0167928Y0369382D01*
X0167928Y0367847D01*
X0168696Y0367080D01*
X0166394Y0367080D02*
X0164859Y0367080D01*
X0165626Y0367080D02*
X0165626Y0370149D01*
X0164859Y0370149D01*
X0165626Y0371684D02*
X0165626Y0372451D01*
X0160255Y0371684D02*
X0160255Y0367080D01*
X0163324Y0367080D01*
X0175602Y0367080D02*
X0175602Y0369382D01*
X0152694Y0385524D02*
X0149625Y0385524D01*
X0210924Y0429009D02*
X0210924Y0432078D01*
X0213226Y0432078D01*
X0213994Y0431311D01*
X0213994Y0429009D01*
X0215528Y0429009D02*
X0215528Y0433613D01*
X0217830Y0433613D01*
X0218598Y0432846D01*
X0218598Y0431311D01*
X0217830Y0430544D01*
X0215528Y0430544D01*
X0217063Y0430544D02*
X0218598Y0429009D01*
X0220132Y0429009D02*
X0220132Y0433613D01*
X0223202Y0433613D01*
X0224736Y0432846D02*
X0225503Y0433613D01*
X0227038Y0433613D01*
X0227805Y0432846D01*
X0227805Y0432078D01*
X0224736Y0429009D01*
X0227805Y0429009D01*
X0229340Y0431311D02*
X0232409Y0431311D01*
X0231642Y0429009D02*
X0231642Y0433613D01*
X0229340Y0431311D01*
X0233944Y0433613D02*
X0233944Y0429009D01*
X0237013Y0429009D01*
X0238548Y0429776D02*
X0241617Y0432846D01*
X0241617Y0429776D01*
X0240850Y0429009D01*
X0239315Y0429009D01*
X0238548Y0429776D01*
X0238548Y0432846D01*
X0239315Y0433613D01*
X0240850Y0433613D01*
X0241617Y0432846D01*
X0243152Y0432078D02*
X0244687Y0433613D01*
X0244687Y0429009D01*
X0246221Y0429009D02*
X0243152Y0429009D01*
X0221667Y0431311D02*
X0220132Y0431311D01*
X0261987Y0389972D02*
X0265057Y0389972D01*
X0266591Y0389972D02*
X0268126Y0390740D01*
X0268893Y0390740D01*
X0269661Y0389972D01*
X0269661Y0388438D01*
X0268893Y0387670D01*
X0267359Y0387670D01*
X0266591Y0388438D01*
X0266591Y0389972D02*
X0266591Y0392274D01*
X0269661Y0392274D01*
X0271195Y0390740D02*
X0272730Y0387670D01*
X0274265Y0390740D01*
X0274487Y0392274D02*
X0276789Y0392274D01*
X0277557Y0391507D01*
X0277557Y0388438D01*
X0276789Y0387670D01*
X0274487Y0387670D01*
X0274487Y0392274D01*
X0281987Y0391507D02*
X0281987Y0388438D01*
X0282755Y0387670D01*
X0284289Y0387670D01*
X0285057Y0388438D01*
X0285057Y0389972D01*
X0283522Y0389972D01*
X0281987Y0391507D02*
X0282755Y0392274D01*
X0284289Y0392274D01*
X0285057Y0391507D01*
X0286591Y0392274D02*
X0289661Y0387670D01*
X0289661Y0392274D01*
X0291195Y0392274D02*
X0293497Y0392274D01*
X0294265Y0391507D01*
X0294265Y0388438D01*
X0293497Y0387670D01*
X0291195Y0387670D01*
X0291195Y0392274D01*
X0294487Y0391507D02*
X0294487Y0388438D01*
X0295255Y0387670D01*
X0296789Y0387670D01*
X0297557Y0388438D01*
X0297557Y0391507D02*
X0296789Y0392274D01*
X0295255Y0392274D01*
X0294487Y0391507D01*
X0286591Y0392274D02*
X0286591Y0387670D01*
X0286542Y0370740D02*
X0287309Y0370740D01*
X0286542Y0370740D02*
X0285007Y0369205D01*
X0285007Y0367670D02*
X0285007Y0370740D01*
X0283472Y0369972D02*
X0283472Y0369205D01*
X0280403Y0369205D01*
X0280403Y0368438D02*
X0280403Y0369972D01*
X0281170Y0370740D01*
X0282705Y0370740D01*
X0283472Y0369972D01*
X0282705Y0367670D02*
X0281170Y0367670D01*
X0280403Y0368438D01*
X0278868Y0368438D02*
X0278101Y0367670D01*
X0275799Y0367670D01*
X0275799Y0366136D02*
X0275799Y0370740D01*
X0278101Y0370740D01*
X0278868Y0369972D01*
X0278868Y0368438D01*
X0274265Y0367670D02*
X0274265Y0369972D01*
X0273497Y0370740D01*
X0272730Y0369972D01*
X0272730Y0367670D01*
X0271195Y0367670D02*
X0271195Y0370740D01*
X0271963Y0370740D01*
X0272730Y0369972D01*
X0269661Y0369972D02*
X0269661Y0369205D01*
X0266591Y0369205D01*
X0266591Y0368438D02*
X0266591Y0369972D01*
X0267359Y0370740D01*
X0268893Y0370740D01*
X0269661Y0369972D01*
X0268893Y0367670D02*
X0267359Y0367670D01*
X0266591Y0368438D01*
X0263522Y0367670D02*
X0263522Y0372274D01*
X0261987Y0372274D02*
X0265057Y0372274D01*
X0263522Y0388438D02*
X0263522Y0391507D01*
X0288844Y0368438D02*
X0289611Y0369205D01*
X0291913Y0369205D01*
X0291913Y0369972D02*
X0291913Y0367670D01*
X0289611Y0367670D01*
X0288844Y0368438D01*
X0289611Y0370740D02*
X0291146Y0370740D01*
X0291913Y0369972D01*
X0293448Y0370740D02*
X0294982Y0370740D01*
X0294215Y0371507D02*
X0294215Y0368438D01*
X0294982Y0367670D01*
X0296517Y0368438D02*
X0297284Y0367670D01*
X0299586Y0367670D01*
X0299586Y0370740D01*
X0301121Y0370740D02*
X0301121Y0367670D01*
X0301121Y0369205D02*
X0302655Y0370740D01*
X0303423Y0370740D01*
X0304957Y0369972D02*
X0305725Y0370740D01*
X0307259Y0370740D01*
X0308027Y0369972D01*
X0308027Y0369205D01*
X0304957Y0369205D01*
X0304957Y0368438D02*
X0304957Y0369972D01*
X0304957Y0368438D02*
X0305725Y0367670D01*
X0307259Y0367670D01*
X0296517Y0368438D02*
X0296517Y0370740D01*
X0346931Y0372393D02*
X0346931Y0367789D01*
X0349233Y0367789D01*
X0350000Y0368556D01*
X0350000Y0371625D01*
X0349233Y0372393D01*
X0346931Y0372393D01*
X0357718Y0371625D02*
X0357718Y0368556D01*
X0358485Y0367789D01*
X0360020Y0367789D01*
X0360787Y0368556D01*
X0360787Y0371625D02*
X0360020Y0372393D01*
X0358485Y0372393D01*
X0357718Y0371625D01*
X0363902Y0372393D02*
X0363902Y0370091D01*
X0365436Y0370858D01*
X0366204Y0370858D01*
X0366971Y0370091D01*
X0366971Y0368556D01*
X0366204Y0367789D01*
X0364669Y0367789D01*
X0363902Y0368556D01*
X0363902Y0372393D02*
X0366971Y0372393D01*
X0368506Y0370858D02*
X0370040Y0367789D01*
X0371575Y0370858D01*
X0371798Y0371625D02*
X0371798Y0368556D01*
X0372565Y0367789D01*
X0374100Y0367789D01*
X0374867Y0368556D01*
X0374867Y0370091D01*
X0373332Y0370091D01*
X0371798Y0371625D02*
X0372565Y0372393D01*
X0374100Y0372393D01*
X0374867Y0371625D01*
X0376402Y0372393D02*
X0379471Y0367789D01*
X0379471Y0372393D01*
X0381005Y0372393D02*
X0383307Y0372393D01*
X0384075Y0371625D01*
X0384075Y0368556D01*
X0383307Y0367789D01*
X0381005Y0367789D01*
X0381005Y0372393D01*
X0376402Y0372393D02*
X0376402Y0367789D01*
X0369213Y0385151D02*
X0369980Y0385918D01*
X0369980Y0388987D01*
X0369213Y0389755D01*
X0366911Y0389755D01*
X0366911Y0385151D01*
X0369213Y0385151D01*
X0365376Y0385151D02*
X0362307Y0385151D01*
X0362307Y0389755D01*
X0365376Y0389755D01*
X0363842Y0387453D02*
X0362307Y0387453D01*
X0360772Y0385151D02*
X0357703Y0385151D01*
X0357703Y0389755D01*
X0356169Y0388987D02*
X0355401Y0389755D01*
X0353867Y0389755D01*
X0353099Y0388987D01*
X0353099Y0385918D01*
X0353867Y0385151D01*
X0355401Y0385151D01*
X0356169Y0385918D01*
X0356169Y0388987D01*
X0356631Y0299912D02*
X0359700Y0299912D01*
X0361235Y0299145D02*
X0362002Y0299912D01*
X0363537Y0299912D01*
X0364304Y0299145D01*
X0364304Y0298378D01*
X0363537Y0297610D01*
X0364304Y0296843D01*
X0364304Y0296076D01*
X0363537Y0295308D01*
X0362002Y0295308D01*
X0361235Y0296076D01*
X0362769Y0297610D02*
X0363537Y0297610D01*
X0365839Y0298378D02*
X0367373Y0299912D01*
X0367373Y0295308D01*
X0365839Y0295308D02*
X0368908Y0295308D01*
X0370442Y0296076D02*
X0371210Y0295308D01*
X0372744Y0295308D01*
X0373512Y0296076D01*
X0373512Y0297610D01*
X0372744Y0298378D01*
X0371977Y0298378D01*
X0370442Y0297610D01*
X0370442Y0299912D01*
X0373512Y0299912D01*
X0375046Y0294541D02*
X0378116Y0294541D01*
X0379650Y0295308D02*
X0379650Y0299912D01*
X0381952Y0299912D01*
X0382720Y0299145D01*
X0382720Y0297610D01*
X0381952Y0296843D01*
X0379650Y0296843D01*
X0381185Y0296843D02*
X0382720Y0295308D01*
X0384254Y0295308D02*
X0387324Y0299912D01*
X0384254Y0299912D02*
X0387324Y0295308D01*
X0388858Y0294541D02*
X0391927Y0294541D01*
X0393462Y0296076D02*
X0394229Y0295308D01*
X0395764Y0295308D01*
X0396531Y0296076D01*
X0396531Y0296843D01*
X0395764Y0297610D01*
X0394229Y0297610D01*
X0393462Y0298378D01*
X0393462Y0299145D01*
X0394229Y0299912D01*
X0395764Y0299912D01*
X0396531Y0299145D01*
X0398066Y0299912D02*
X0399601Y0298378D01*
X0401135Y0299912D01*
X0401135Y0295308D01*
X0398066Y0295308D02*
X0398066Y0299912D01*
X0402670Y0299912D02*
X0405739Y0299912D01*
X0404205Y0299912D02*
X0404205Y0295308D01*
X0358165Y0297610D02*
X0356631Y0297610D01*
X0355096Y0297610D02*
X0354329Y0296843D01*
X0352027Y0296843D01*
X0353561Y0296843D02*
X0355096Y0295308D01*
X0356631Y0295308D02*
X0356631Y0299912D01*
X0355096Y0299145D02*
X0355096Y0297610D01*
X0355096Y0299145D02*
X0354329Y0299912D01*
X0352027Y0299912D01*
X0352027Y0295308D01*
X0387809Y0249404D02*
X0390879Y0247869D01*
X0387809Y0246334D01*
X0388577Y0244800D02*
X0390111Y0244800D01*
X0390879Y0244032D01*
X0390879Y0242498D01*
X0390111Y0241730D01*
X0390879Y0241628D02*
X0390879Y0239326D01*
X0390111Y0238559D01*
X0388577Y0238559D01*
X0387809Y0239326D01*
X0387809Y0241628D01*
X0388577Y0241730D02*
X0387809Y0243265D01*
X0387809Y0244032D01*
X0388577Y0244800D01*
X0386275Y0244800D02*
X0386275Y0241730D01*
X0388577Y0241730D01*
X0386275Y0241628D02*
X0390879Y0241628D01*
X0390879Y0237024D02*
X0388577Y0237024D01*
X0387809Y0236257D01*
X0387809Y0233955D01*
X0390879Y0233955D01*
X0390111Y0232420D02*
X0388577Y0232420D01*
X0388577Y0230885D01*
X0390111Y0229351D02*
X0387042Y0229351D01*
X0386275Y0230118D01*
X0386275Y0231653D01*
X0387042Y0232420D01*
X0390111Y0232420D02*
X0390879Y0231653D01*
X0390879Y0230118D01*
X0390111Y0229351D01*
X0390899Y0228478D02*
X0391666Y0227711D01*
X0391666Y0226176D01*
X0390899Y0225409D01*
X0387830Y0225409D01*
X0387062Y0226176D01*
X0387062Y0227711D01*
X0387830Y0228478D01*
X0387830Y0217691D02*
X0387062Y0216924D01*
X0387062Y0214622D01*
X0391666Y0214622D01*
X0391666Y0216924D01*
X0390899Y0217691D01*
X0387830Y0217691D01*
X0371942Y0217902D02*
X0368872Y0217902D01*
X0368872Y0217134D01*
X0368105Y0215600D02*
X0367338Y0214832D01*
X0367338Y0212530D01*
X0371942Y0212530D01*
X0371942Y0214832D01*
X0371174Y0215600D01*
X0368105Y0215600D01*
X0367338Y0217902D02*
X0366570Y0217902D01*
X0368872Y0220971D02*
X0368872Y0223273D01*
X0368872Y0224807D02*
X0368872Y0226342D01*
X0368105Y0225575D02*
X0371174Y0225575D01*
X0371942Y0226342D01*
X0371174Y0227877D02*
X0370407Y0228644D01*
X0370407Y0230946D01*
X0369640Y0230946D02*
X0371942Y0230946D01*
X0371942Y0228644D01*
X0371174Y0227877D01*
X0368872Y0228644D02*
X0368872Y0230179D01*
X0369640Y0230946D01*
X0368872Y0232481D02*
X0371942Y0232481D01*
X0371942Y0235550D02*
X0369640Y0235550D01*
X0368872Y0234783D01*
X0368872Y0232481D01*
X0369640Y0237085D02*
X0368872Y0237852D01*
X0368872Y0240154D01*
X0369640Y0241689D02*
X0368872Y0242456D01*
X0368872Y0243990D01*
X0369640Y0244758D01*
X0370407Y0244758D01*
X0370407Y0241689D01*
X0371174Y0241689D02*
X0369640Y0241689D01*
X0371174Y0241689D02*
X0371942Y0242456D01*
X0371942Y0243990D01*
X0371942Y0240154D02*
X0371942Y0237852D01*
X0371174Y0237085D01*
X0369640Y0237085D01*
X0371174Y0223273D02*
X0370407Y0222505D01*
X0370407Y0220971D01*
X0369640Y0220204D01*
X0368872Y0220971D01*
X0371942Y0220204D02*
X0371942Y0222505D01*
X0371174Y0223273D01*
X0371942Y0218669D02*
X0371942Y0217134D01*
X0380782Y0184711D02*
X0380015Y0183944D01*
X0380015Y0181642D01*
X0384619Y0181642D01*
X0384619Y0183944D01*
X0383852Y0184711D01*
X0380782Y0184711D01*
X0380015Y0180107D02*
X0384619Y0180107D01*
X0380015Y0177038D01*
X0384619Y0177038D01*
X0383852Y0175504D02*
X0384619Y0174736D01*
X0384619Y0173202D01*
X0383852Y0172434D01*
X0380782Y0172434D01*
X0380015Y0173202D01*
X0380015Y0174736D01*
X0380782Y0175504D01*
X0382317Y0175504D02*
X0382317Y0173969D01*
X0382317Y0175504D02*
X0383852Y0175504D01*
X0381550Y0156680D02*
X0384619Y0155145D01*
X0381550Y0153611D01*
X0382317Y0152076D02*
X0383852Y0152076D01*
X0384619Y0151309D01*
X0384619Y0149774D01*
X0383852Y0149007D01*
X0382317Y0149007D02*
X0381550Y0150541D01*
X0381550Y0151309D01*
X0382317Y0152076D01*
X0380015Y0152076D02*
X0380015Y0149007D01*
X0382317Y0149007D01*
X0382317Y0147472D02*
X0382317Y0144403D01*
X0380782Y0145937D02*
X0383852Y0145937D01*
D15*
X0383783Y0279628D02*
X0384259Y0280104D01*
X0383783Y0279628D02*
X0382833Y0279628D01*
X0382357Y0280104D01*
X0382357Y0282005D01*
X0382833Y0282480D01*
X0383783Y0282480D01*
X0384259Y0282005D01*
X0385257Y0282005D02*
X0385257Y0280104D01*
X0385733Y0279628D01*
X0386683Y0279628D01*
X0387159Y0280104D01*
X0387159Y0282005D02*
X0386683Y0282480D01*
X0385733Y0282480D01*
X0385257Y0282005D01*
X0381358Y0282480D02*
X0381358Y0280579D01*
X0380408Y0279628D01*
X0379457Y0280579D01*
X0379457Y0282480D01*
X0367237Y0282480D02*
X0365336Y0282480D01*
X0366287Y0282480D02*
X0366287Y0279628D01*
X0364337Y0280104D02*
X0364337Y0282480D01*
X0362436Y0282480D02*
X0362436Y0280104D01*
X0362911Y0279628D01*
X0363862Y0279628D01*
X0364337Y0280104D01*
X0361437Y0280104D02*
X0361437Y0282005D01*
X0360962Y0282480D01*
X0360011Y0282480D01*
X0359536Y0282005D01*
X0359536Y0280104D01*
X0360011Y0279628D01*
X0360962Y0279628D01*
X0361437Y0280104D01*
X0357789Y0280104D02*
X0357789Y0282005D01*
X0357313Y0282480D01*
X0355887Y0282480D01*
X0355887Y0279628D01*
X0357313Y0279628D01*
X0357789Y0280104D01*
X0354888Y0279628D02*
X0354888Y0282480D01*
X0352987Y0282480D02*
X0354888Y0279628D01*
X0352987Y0279628D02*
X0352987Y0282480D01*
X0351988Y0282005D02*
X0351513Y0282480D01*
X0350562Y0282480D01*
X0350087Y0282005D01*
X0350087Y0280104D01*
X0350562Y0279628D01*
X0351513Y0279628D01*
X0351988Y0280104D01*
X0351988Y0281054D01*
X0351038Y0281054D01*
X0387332Y0318526D02*
X0389233Y0318526D01*
X0389708Y0319001D01*
X0389708Y0319952D01*
X0389233Y0320427D01*
X0388282Y0320427D01*
X0388282Y0319477D01*
X0387332Y0320427D02*
X0386856Y0319952D01*
X0386856Y0319001D01*
X0387332Y0318526D01*
X0386856Y0321426D02*
X0389708Y0323327D01*
X0386856Y0323327D01*
X0386856Y0324326D02*
X0386856Y0325752D01*
X0387332Y0326228D01*
X0389233Y0326228D01*
X0389708Y0325752D01*
X0389708Y0324326D01*
X0386856Y0324326D01*
X0386856Y0321426D02*
X0389708Y0321426D01*
X0389708Y0328526D02*
X0389708Y0329477D01*
X0389708Y0329001D02*
X0386856Y0329001D01*
X0386856Y0328526D02*
X0386856Y0329477D01*
X0386856Y0330459D02*
X0389708Y0332361D01*
X0386856Y0332361D01*
X0386856Y0330459D02*
X0389708Y0330459D01*
X0388758Y0338526D02*
X0389708Y0339477D01*
X0388758Y0340427D01*
X0386856Y0340427D01*
X0387332Y0341426D02*
X0389233Y0341426D01*
X0389708Y0341901D01*
X0389708Y0342852D01*
X0389233Y0343327D01*
X0389233Y0344326D02*
X0389708Y0344802D01*
X0389708Y0345752D01*
X0389233Y0346228D01*
X0387332Y0346228D02*
X0386856Y0345752D01*
X0386856Y0344802D01*
X0387332Y0344326D01*
X0389233Y0344326D01*
X0387332Y0343327D02*
X0386856Y0342852D01*
X0386856Y0341901D01*
X0387332Y0341426D01*
X0386856Y0338526D02*
X0388758Y0338526D01*
X0166086Y0342608D02*
X0165611Y0342132D01*
X0166086Y0342608D02*
X0166086Y0343558D01*
X0165611Y0344034D01*
X0165136Y0344034D01*
X0164660Y0343558D01*
X0164660Y0343083D01*
X0164660Y0343558D02*
X0164185Y0344034D01*
X0163710Y0344034D01*
X0163234Y0343558D01*
X0163234Y0342608D01*
X0163710Y0342132D01*
X0163710Y0350164D02*
X0165611Y0350164D01*
X0166086Y0350639D01*
X0166086Y0351590D01*
X0165611Y0352065D01*
X0164660Y0352065D01*
X0164660Y0351114D01*
X0163710Y0350164D02*
X0163234Y0350639D01*
X0163234Y0351590D01*
X0163710Y0352065D01*
X0163234Y0353064D02*
X0166086Y0354965D01*
X0163234Y0354965D01*
X0163234Y0355964D02*
X0163234Y0357390D01*
X0163710Y0357865D01*
X0165611Y0357865D01*
X0166086Y0357390D01*
X0166086Y0355964D01*
X0163234Y0355964D01*
X0163234Y0353064D02*
X0166086Y0353064D01*
X0166086Y0334183D02*
X0166086Y0332282D01*
X0164185Y0334183D01*
X0163710Y0334183D01*
X0163234Y0333708D01*
X0163234Y0332757D01*
X0163710Y0332282D01*
X0166086Y0324215D02*
X0166086Y0322313D01*
X0166086Y0323264D02*
X0163234Y0323264D01*
X0164185Y0322313D01*
D16*
X0175272Y0116230D02*
X0175272Y0111230D01*
X0175272Y0106230D01*
X0180272Y0106230D01*
X0180272Y0111230D01*
X0180272Y0116230D01*
X0177772Y0077730D02*
X0180272Y0075230D01*
X0181472Y0073930D01*
X0242988Y0106230D02*
X0242988Y0111230D01*
X0242988Y0116230D01*
X0247988Y0116230D02*
X0247988Y0111230D01*
X0247988Y0106230D01*
X0242988Y0106230D01*
X0245488Y0077730D02*
X0247988Y0075230D01*
X0249188Y0073930D01*
X0113755Y0073930D02*
X0112555Y0075230D01*
X0110055Y0077730D01*
X0107555Y0106230D02*
X0107555Y0111230D01*
X0107555Y0116230D01*
X0112555Y0116230D02*
X0112555Y0111230D01*
X0112555Y0106230D01*
X0107555Y0106230D01*
X0046039Y0073930D02*
X0044839Y0075230D01*
X0042339Y0077730D01*
X0039839Y0106230D02*
X0044839Y0106230D01*
X0044839Y0111230D01*
X0044839Y0116230D01*
X0039839Y0116230D02*
X0039839Y0111230D01*
X0039839Y0106230D01*
M02*
