G75*
%MOIN*%
%OFA0B0*%
%FSLAX25Y25*%
%IPPOS*%
%LPD*%
%AMOC8*
5,1,8,0,0,1.08239X$1,22.5*
%
%ADD10C,0.07400*%
%ADD11C,0.10000*%
%ADD12C,0.07500*%
%ADD13OC8,0.07500*%
%ADD14C,0.15000*%
%ADD15C,0.06600*%
%ADD16C,0.11811*%
%ADD17C,0.07000*%
%ADD18C,0.03000*%
%ADD19C,0.04000*%
D10*
X0233532Y0024268D03*
X0253532Y0024268D03*
X0349831Y0199150D03*
X0359831Y0199150D03*
X0369831Y0199150D03*
X0402627Y0199346D03*
X0403926Y0233756D03*
X0403926Y0243756D03*
X0403926Y0253756D03*
X0403926Y0263756D03*
X0403926Y0273756D03*
X0403926Y0283756D03*
X0315383Y0328126D03*
X0305383Y0328126D03*
X0305383Y0338126D03*
X0315383Y0338126D03*
X0315383Y0348126D03*
X0305383Y0348126D03*
X0305383Y0358126D03*
X0315383Y0358126D03*
X0319595Y0382850D03*
X0309595Y0382850D03*
X0299595Y0382850D03*
X0279438Y0382929D03*
X0269438Y0382929D03*
X0259438Y0382929D03*
X0249438Y0382929D03*
X0192942Y0310606D03*
X0192942Y0300606D03*
X0192942Y0290606D03*
X0231406Y0262929D03*
X0241406Y0262929D03*
X0242902Y0300094D03*
X0270934Y0300094D03*
X0329595Y0382850D03*
X0349517Y0382693D03*
X0359517Y0382693D03*
X0369517Y0382693D03*
X0379438Y0382772D03*
X0389438Y0382772D03*
X0399438Y0382772D03*
X0409438Y0382772D03*
X0130501Y0376866D03*
X0120501Y0376866D03*
X0110501Y0376866D03*
X0100501Y0376866D03*
X0090501Y0376866D03*
X0080501Y0376866D03*
X0070501Y0376866D03*
X0060501Y0376866D03*
X0060501Y0287496D03*
X0070501Y0287496D03*
X0080501Y0287496D03*
X0090501Y0287496D03*
X0100501Y0287496D03*
X0110501Y0287496D03*
X0120501Y0287496D03*
X0130501Y0287496D03*
D11*
X0045028Y0023756D03*
X0065028Y0023756D03*
X0085028Y0023756D03*
X0105028Y0023756D03*
D12*
X0207942Y0337063D03*
D13*
X0207942Y0357063D03*
D14*
X0125855Y0243205D03*
X0105855Y0243205D03*
X0085855Y0243205D03*
X0065855Y0243205D03*
X0063887Y0067220D03*
X0083887Y0067220D03*
X0110973Y0067220D03*
X0130973Y0067220D03*
D15*
X0252902Y0300094D03*
X0260934Y0300094D03*
D16*
X0282627Y0299543D02*
X0282627Y0311354D01*
X0231170Y0310961D02*
X0231170Y0299150D01*
D17*
X0130973Y0067220D02*
X0130973Y0058992D01*
X0115107Y0043126D01*
X0087391Y0043126D01*
X0085028Y0040764D01*
X0085028Y0066079D01*
X0083887Y0067220D01*
X0085028Y0040764D02*
X0085028Y0023756D01*
D18*
X0130973Y0058992D02*
X0132800Y0058000D01*
X0165800Y0025000D01*
X0231800Y0025000D01*
X0233532Y0024268D01*
X0349831Y0199150D02*
X0348800Y0202000D01*
X0348800Y0211000D01*
X0285800Y0274000D01*
X0240800Y0274000D01*
X0231800Y0265000D01*
X0231406Y0262929D01*
X0225800Y0271000D02*
X0234800Y0280000D01*
X0297800Y0280000D01*
X0285800Y0286000D02*
X0312800Y0313000D01*
X0351800Y0313000D01*
X0381800Y0343000D01*
X0381800Y0349000D01*
X0378800Y0352000D01*
X0342800Y0352000D01*
X0342800Y0361000D01*
X0339800Y0364000D01*
X0336800Y0364000D01*
X0318800Y0382000D01*
X0319595Y0382850D01*
X0309800Y0382000D02*
X0309800Y0379000D01*
X0303800Y0373000D01*
X0297800Y0373000D01*
X0285800Y0361000D01*
X0267800Y0343000D01*
X0270800Y0337000D02*
X0300800Y0367000D01*
X0309800Y0367000D01*
X0315800Y0361000D01*
X0315383Y0358126D01*
X0305383Y0358126D02*
X0303800Y0358000D01*
X0300800Y0358000D01*
X0264800Y0322000D01*
X0225800Y0322000D01*
X0201800Y0298000D01*
X0201800Y0295000D01*
X0195800Y0289000D01*
X0192942Y0290606D01*
X0192942Y0310606D02*
X0192800Y0313000D01*
X0174800Y0313000D01*
X0171800Y0316000D01*
X0168800Y0322000D02*
X0165800Y0319000D01*
X0168800Y0322000D02*
X0216800Y0322000D01*
X0204800Y0346000D02*
X0246800Y0346000D01*
X0255800Y0337000D01*
X0270800Y0337000D01*
X0282800Y0328000D02*
X0303800Y0328000D01*
X0305383Y0328126D01*
X0303800Y0328000D02*
X0312800Y0319000D01*
X0318800Y0319000D01*
X0345800Y0346000D01*
X0375800Y0346000D01*
X0393800Y0373000D02*
X0339800Y0373000D01*
X0330800Y0382000D01*
X0329595Y0382850D01*
X0312800Y0373000D02*
X0327800Y0358000D01*
X0336800Y0358000D01*
X0333800Y0352000D02*
X0318800Y0337000D01*
X0315800Y0337000D01*
X0315383Y0338126D01*
X0333800Y0352000D02*
X0342800Y0352000D01*
X0309800Y0382000D02*
X0309595Y0382850D01*
X0299595Y0382850D02*
X0297800Y0382000D01*
X0288800Y0373000D01*
X0276800Y0373000D01*
X0270800Y0379000D01*
X0270800Y0382000D01*
X0269438Y0382929D01*
X0282800Y0367000D02*
X0243800Y0367000D01*
X0246800Y0355000D02*
X0228800Y0373000D01*
X0210800Y0367000D02*
X0192800Y0367000D01*
X0165800Y0340000D01*
X0162800Y0334000D02*
X0192800Y0334000D01*
X0204800Y0346000D01*
X0210800Y0367000D02*
X0225800Y0352000D01*
X0255800Y0328000D02*
X0165800Y0328000D01*
X0162800Y0334000D02*
X0132800Y0304000D01*
X0132800Y0289000D01*
X0130501Y0287496D01*
X0117800Y0277000D02*
X0222800Y0277000D01*
X0231800Y0286000D01*
X0285800Y0286000D01*
X0306800Y0298000D02*
X0339800Y0265000D01*
X0402800Y0265000D01*
X0403926Y0263756D01*
X0403926Y0253756D02*
X0402800Y0253000D01*
X0399800Y0253000D01*
X0369800Y0223000D01*
X0369800Y0202000D01*
X0369831Y0199150D01*
X0270800Y0316000D02*
X0249800Y0316000D01*
X0270800Y0316000D02*
X0282800Y0328000D01*
X0249438Y0382929D02*
X0246800Y0382000D01*
X0198800Y0382000D01*
X0168800Y0352000D01*
X0132800Y0352000D01*
X0069800Y0289000D01*
X0070501Y0287496D01*
X0063800Y0271000D02*
X0093800Y0271000D01*
X0105800Y0259000D01*
X0105800Y0244000D01*
X0105855Y0243205D01*
X0123800Y0244000D02*
X0123800Y0262000D01*
X0120800Y0265000D01*
X0117800Y0277000D02*
X0111800Y0283000D01*
X0111800Y0286000D01*
X0110501Y0287496D01*
X0102800Y0271000D02*
X0225800Y0271000D01*
X0165800Y0358000D02*
X0117800Y0358000D01*
X0120800Y0361000D01*
X0120800Y0376000D01*
X0120501Y0376866D01*
X0135800Y0388000D02*
X0057800Y0388000D01*
X0045800Y0376000D01*
X0045800Y0280000D01*
X0060800Y0265000D01*
X0090800Y0265000D01*
X0102800Y0271000D02*
X0090800Y0283000D01*
X0090800Y0286000D01*
X0090501Y0287496D01*
X0063800Y0271000D02*
X0051800Y0283000D01*
X0051800Y0292000D01*
X0117800Y0358000D01*
X0135800Y0388000D02*
X0156800Y0367000D01*
X0123800Y0244000D02*
X0125855Y0243205D01*
X0393800Y0373000D02*
X0399800Y0379000D01*
X0399800Y0382000D01*
X0399438Y0382772D01*
D19*
X0378800Y0352000D03*
X0375800Y0346000D03*
X0336800Y0358000D03*
X0312800Y0373000D03*
X0285800Y0361000D03*
X0282800Y0367000D03*
X0267800Y0343000D03*
X0255800Y0328000D03*
X0249800Y0316000D03*
X0216800Y0322000D03*
X0225800Y0352000D03*
X0246800Y0355000D03*
X0243800Y0367000D03*
X0228800Y0373000D03*
X0165800Y0358000D03*
X0156800Y0367000D03*
X0165800Y0340000D03*
X0165800Y0328000D03*
X0165800Y0319000D03*
X0171800Y0316000D03*
X0120800Y0265000D03*
X0090800Y0265000D03*
X0297800Y0280000D03*
X0306800Y0298000D03*
M02*
