%
M48
M72
T01C0.02362
T02C0.02400
T03C0.03200
T04C0.04000
T05C0.05200
T06C0.06299
T07C0.07874
%
T01
X91945Y177195
X36433Y293888
T02
X28000Y273104
X44500Y229604
X127000Y241604
X122500Y307604
X109000Y316604
X128500Y367604
X208000Y355604
T03
X193992Y189163
X193992Y169163
T04
X162260Y207510
X152260Y207510
X142260Y207510
X132260Y207510
X122260Y207510
X112260Y207510
X102260Y207510
X92260Y207510
X82260Y207510
X72260Y207510
X62260Y207510
X52260Y207510
X42260Y207510
X32260Y207510
X22260Y207510
X22260Y266683
X32260Y266683
X42260Y266683
X52260Y266683
X62260Y266683
X72260Y266683
X82260Y266683
X92260Y266683
X102260Y266683
X112260Y266683
X122260Y266683
X132260Y266683
X142260Y266683
X152260Y266683
X162260Y266683
X106394Y293848
X96394Y293848
X86394Y293848
X76394Y293848
X66394Y293848
X56394Y293848
X46394Y293848
X36394Y293848
X36394Y383219
X46394Y383219
X56394Y383219
X66394Y383219
X76394Y383219
X86394Y383219
X96394Y383219
X106394Y383219
X152654Y377234
X162654Y377234
X172654Y377234
X182654Y377234
X203717Y380620
X213717Y380620
X223717Y380620
X233717Y380620
X233717Y370620
X223717Y370620
X213717Y370620
X203717Y370620
X156000Y353337
X156000Y343337
X156000Y333337
X156000Y323337
X267299Y380463
X277299Y380463
X287299Y380463
X297299Y380463
X349898Y379596
X359898Y379596
X369898Y379596
X379898Y379596
X379622Y342549
X379622Y332549
X379622Y322549
X382654Y271841
X372654Y271841
X362654Y271841
X352654Y271841
X379858Y247589
X379858Y237589
X379858Y227589
X379858Y217589
X343008Y218297
X343008Y208297
X343008Y198297
X372142Y177746
X372142Y167746
X372142Y159715
X372142Y149715
X348165Y150935
X336748Y150463
X336748Y136211
X348165Y136289
X348244Y49596
X336827Y49518
X336827Y27785
X348244Y27864
T05
X268988Y75230
X221988Y75230
X201272Y75230
X154272Y75230
X133555Y75230
X86555Y75230
X65839Y75230
X18839Y75230
X18839Y123230
X42339Y131230
X65839Y123230
X86555Y123230
X110055Y131230
X133555Y123230
X154272Y123230
X177772Y131230
X201272Y123230
X221988Y123230
X245488Y131230
X268988Y123230
T06
X16118Y16880
X36118Y16880
X56118Y16880
X76118Y16880
X96118Y16880
X116118Y16880
T07
X377496Y138022
X377102Y189478
M30
