%
M48
M72
T01C0.03200
T02C0.04000
T03C0.06299
T04C0.07874
%
T01
X221079Y198087
X221079Y218087
T02
X47535Y52693
X47535Y62693
X47535Y72693
X47535Y82693
X48362Y153874
X48362Y163874
X48362Y173874
X48362Y183874
X48362Y193874
X48362Y203874
X48362Y213874
X48362Y223874
X14661Y222732
X14661Y232732
X14661Y242732
X14661Y252732
X213283Y132457
X213283Y112457
X164780Y30252
X164780Y10252
T03
X133441Y19819
X113441Y19819
X93441Y19819
X73441Y19819
T04
X91512Y58559
X111512Y58559
X138598Y58559
X158598Y58559
X153480Y234543
X133480Y234543
X113480Y234543
X93480Y234543
M30
