G75*
%MOIN*%
%OFA0B0*%
%FSLAX25Y25*%
%IPPOS*%
%LPD*%
%AMOC8*
5,1,8,0,0,1.08239X$1,22.5*
%
%ADD10C,0.00000*%
%ADD11C,0.00500*%
%ADD12C,0.01100*%
%ADD13C,0.00300*%
%ADD14C,0.00600*%
%ADD15C,0.00800*%
%ADD16C,0.01300*%
%ADD17C,0.00400*%
%ADD18R,0.08000X0.02000*%
D10*
X0001000Y0001000D02*
X0001000Y0111236D01*
X0034465Y0111236D01*
X0034465Y0150606D01*
X0001000Y0150606D01*
X0001000Y0260843D01*
X0249031Y0260843D01*
X0249031Y0150606D01*
X0223441Y0150606D01*
X0223441Y0111236D01*
X0249031Y0111236D01*
X0249031Y0001000D01*
X0001000Y0001000D01*
D11*
X0016157Y0028992D02*
X0055528Y0028992D01*
X0055528Y0107732D01*
X0016157Y0107732D01*
X0016157Y0028992D01*
X0058953Y0044110D02*
X0190685Y0044110D01*
X0190685Y0258677D01*
X0058953Y0258677D01*
X0058953Y0044110D01*
X0062339Y0035685D02*
X0062339Y0004189D01*
X0145331Y0004189D01*
X0145331Y0035685D01*
X0062339Y0035685D01*
X0076591Y0071472D02*
X0076591Y0200291D01*
X0172260Y0200291D01*
X0172260Y0071472D01*
X0076591Y0071472D01*
X0056591Y0122102D02*
X0030528Y0122102D01*
X0030528Y0257693D01*
X0056591Y0257693D01*
X0056591Y0122102D01*
X0037494Y0144355D02*
X0037811Y0144672D01*
X0037811Y0145306D01*
X0037494Y0145623D01*
X0035910Y0145623D01*
X0035910Y0144355D02*
X0037494Y0144355D01*
X0137115Y0013571D02*
X0137749Y0013571D01*
X0137432Y0013571D02*
X0137432Y0011986D01*
X0137115Y0011669D01*
X0136798Y0011669D01*
X0136481Y0011986D01*
X0193717Y0001512D02*
X0248835Y0001512D01*
X0248835Y0119937D01*
X0193717Y0119937D01*
X0193717Y0001512D01*
X0236628Y0051959D02*
X0236628Y0052909D01*
X0236945Y0053226D01*
X0237579Y0053226D01*
X0237896Y0052909D01*
X0237896Y0051959D01*
X0238530Y0051959D02*
X0236628Y0051959D01*
X0236945Y0054169D02*
X0238213Y0054169D01*
X0238530Y0054485D01*
X0238530Y0055119D01*
X0238213Y0055436D01*
X0236945Y0055436D01*
X0236628Y0055119D01*
X0236628Y0054485D01*
X0236945Y0054169D01*
X0236628Y0056378D02*
X0238530Y0056378D01*
X0237896Y0057012D01*
X0238530Y0057646D01*
X0236628Y0057646D01*
X0236628Y0058588D02*
X0238530Y0058588D01*
X0238530Y0059856D01*
X0238530Y0060798D02*
X0236628Y0060798D01*
X0236628Y0061749D01*
X0236945Y0062066D01*
X0237579Y0062066D01*
X0237896Y0061749D01*
X0237896Y0060798D01*
X0237896Y0061432D02*
X0238530Y0062066D01*
X0236628Y0059856D02*
X0236628Y0058588D01*
X0237579Y0058588D02*
X0237579Y0059222D01*
X0230078Y0189129D02*
X0227076Y0189129D01*
X0226325Y0189879D01*
X0226325Y0191381D01*
X0227076Y0192131D01*
X0227826Y0193733D02*
X0226325Y0195234D01*
X0230829Y0195234D01*
X0230829Y0193733D02*
X0230829Y0196735D01*
X0230078Y0192131D02*
X0230829Y0191381D01*
X0230829Y0189879D01*
X0230078Y0189129D01*
D12*
X0184058Y0157698D02*
X0181806Y0157698D01*
X0180305Y0159199D01*
X0179554Y0159199D01*
X0181806Y0157698D02*
X0180305Y0156197D01*
X0179554Y0156197D01*
X0181055Y0154043D02*
X0179554Y0152542D01*
X0181055Y0151040D01*
X0184058Y0151040D01*
X0184058Y0148886D02*
X0184058Y0145884D01*
X0179554Y0145884D01*
X0179554Y0143730D02*
X0179554Y0140728D01*
X0184058Y0140728D01*
X0184058Y0143730D01*
X0181806Y0142229D02*
X0181806Y0140728D01*
X0181806Y0138574D02*
X0182557Y0137823D01*
X0182557Y0135571D01*
X0184058Y0135571D02*
X0179554Y0135571D01*
X0179554Y0137823D01*
X0180305Y0138574D01*
X0181806Y0138574D01*
X0182557Y0137072D02*
X0184058Y0138574D01*
X0181806Y0151040D02*
X0181806Y0154043D01*
X0181055Y0154043D02*
X0184058Y0154043D01*
D13*
X0150950Y0248528D02*
X0149716Y0248528D01*
X0149099Y0249145D01*
X0149099Y0251614D01*
X0149716Y0252231D01*
X0150950Y0252231D01*
X0151567Y0251614D01*
X0152782Y0250380D02*
X0155251Y0250380D01*
X0154016Y0251614D02*
X0154016Y0249145D01*
X0151567Y0249145D02*
X0150950Y0248528D01*
X0147884Y0249145D02*
X0147884Y0251614D01*
X0147267Y0252231D01*
X0145416Y0252231D01*
X0145416Y0248528D01*
X0147267Y0248528D01*
X0147884Y0249145D01*
X0135585Y0249435D02*
X0133116Y0249435D01*
X0131902Y0250669D02*
X0131285Y0251286D01*
X0130051Y0251286D01*
X0129433Y0250669D01*
X0129433Y0248200D01*
X0130051Y0247583D01*
X0131285Y0247583D01*
X0131902Y0248200D01*
X0128219Y0248200D02*
X0128219Y0250669D01*
X0127602Y0251286D01*
X0125750Y0251286D01*
X0125750Y0247583D01*
X0127602Y0247583D01*
X0128219Y0248200D01*
X0118085Y0247583D02*
X0115616Y0247583D01*
X0116851Y0247583D02*
X0116851Y0251286D01*
X0115616Y0250052D01*
X0110719Y0251286D02*
X0110719Y0247583D01*
X0108250Y0251286D01*
X0108250Y0247583D01*
X0107029Y0247583D02*
X0105795Y0247583D01*
X0106412Y0247583D02*
X0106412Y0251286D01*
X0105795Y0251286D02*
X0107029Y0251286D01*
X0098085Y0250669D02*
X0097468Y0251286D01*
X0096234Y0251286D01*
X0095616Y0250669D01*
X0098085Y0250669D02*
X0098085Y0250052D01*
X0095616Y0247583D01*
X0098085Y0247583D01*
X0090719Y0247583D02*
X0090719Y0251286D01*
X0088250Y0251286D02*
X0088250Y0247583D01*
X0087029Y0247583D02*
X0085795Y0247583D01*
X0086412Y0247583D02*
X0086412Y0251286D01*
X0085795Y0251286D02*
X0087029Y0251286D01*
X0088250Y0251286D02*
X0090719Y0247583D01*
X0037461Y0087395D02*
X0037937Y0086920D01*
X0037937Y0085969D01*
X0037461Y0085494D01*
X0035560Y0085494D01*
X0035085Y0085969D01*
X0035085Y0086920D01*
X0035560Y0087395D01*
X0035560Y0084495D02*
X0035085Y0084019D01*
X0035085Y0083069D01*
X0035560Y0082593D01*
X0037461Y0082593D01*
X0037937Y0083069D01*
X0037937Y0084019D01*
X0037461Y0084495D01*
X0036986Y0081595D02*
X0035085Y0081595D01*
X0036986Y0081595D02*
X0037937Y0080644D01*
X0036986Y0079693D01*
X0035085Y0079693D01*
X0035085Y0077789D02*
X0035085Y0075887D01*
X0035085Y0076838D02*
X0037937Y0076838D01*
X0037461Y0074888D02*
X0035085Y0074888D01*
X0035085Y0072987D02*
X0037461Y0072987D01*
X0037937Y0073462D01*
X0037937Y0074413D01*
X0037461Y0074888D01*
X0037461Y0071988D02*
X0035560Y0071988D01*
X0035085Y0071513D01*
X0035085Y0070562D01*
X0035560Y0070087D01*
X0037461Y0070087D01*
X0037937Y0070562D01*
X0037937Y0071513D01*
X0037461Y0071988D01*
X0037461Y0058340D02*
X0035560Y0058340D01*
X0035085Y0057864D01*
X0035085Y0056438D01*
X0037937Y0056438D01*
X0037937Y0057864D01*
X0037461Y0058340D01*
X0037937Y0055440D02*
X0035085Y0055440D01*
X0035085Y0053538D02*
X0037937Y0055440D01*
X0037937Y0053538D02*
X0035085Y0053538D01*
X0035560Y0052540D02*
X0035085Y0052064D01*
X0035085Y0051114D01*
X0035560Y0050638D01*
X0037461Y0050638D01*
X0037937Y0051114D01*
X0037937Y0052064D01*
X0037461Y0052540D01*
X0036511Y0052540D01*
X0036511Y0051589D01*
D14*
X0053934Y0023147D02*
X0052767Y0021979D01*
X0053934Y0023147D02*
X0056270Y0023147D01*
X0057437Y0021979D01*
X0057437Y0020812D01*
X0052767Y0016141D01*
X0057437Y0016141D01*
X0089735Y0036535D02*
X0094406Y0036535D01*
X0092070Y0036535D02*
X0092070Y0043541D01*
X0089735Y0041205D01*
X0072447Y0054135D02*
X0067593Y0054135D01*
X0072447Y0058988D01*
X0072447Y0060202D01*
X0071233Y0061415D01*
X0068806Y0061415D01*
X0067593Y0060202D01*
X0109341Y0043147D02*
X0109341Y0036141D01*
X0114012Y0036141D01*
X0148948Y0023580D02*
X0148948Y0016574D01*
X0153618Y0016574D02*
X0153618Y0023580D01*
X0148948Y0023580D02*
X0153618Y0016574D01*
X0172869Y0054922D02*
X0177722Y0054922D01*
X0175295Y0054922D02*
X0175295Y0062202D01*
X0172869Y0059776D01*
X0205109Y0023963D02*
X0205109Y0019292D01*
X0198103Y0019292D01*
X0198537Y0012230D02*
X0205543Y0012230D01*
X0198537Y0007560D01*
X0205543Y0007560D01*
X0225622Y0101891D02*
X0225622Y0106561D01*
X0225622Y0108889D02*
X0224455Y0111224D01*
X0224455Y0112392D01*
X0225622Y0113559D01*
X0227958Y0113559D01*
X0229125Y0112392D01*
X0229125Y0110056D01*
X0227958Y0108889D01*
X0225622Y0108889D02*
X0222119Y0108889D01*
X0222119Y0113559D01*
X0222119Y0115886D02*
X0226790Y0115886D01*
X0229125Y0118222D01*
X0226790Y0120557D01*
X0222119Y0120557D01*
X0222893Y0123859D02*
X0221726Y0125027D01*
X0221726Y0127362D01*
X0222893Y0128530D01*
X0225229Y0128530D02*
X0225229Y0126194D01*
X0225229Y0128530D02*
X0227564Y0128530D01*
X0228731Y0127362D01*
X0228731Y0125027D01*
X0227564Y0123859D01*
X0222893Y0123859D01*
X0221726Y0130857D02*
X0228731Y0135528D01*
X0221726Y0135528D01*
X0221726Y0137855D02*
X0221726Y0141358D01*
X0222893Y0142526D01*
X0227564Y0142526D01*
X0228731Y0141358D01*
X0228731Y0137855D01*
X0221726Y0137855D01*
X0221726Y0130857D02*
X0228731Y0130857D01*
X0227958Y0104226D02*
X0223287Y0104226D01*
X0221079Y0202587D02*
X0221079Y0205587D01*
X0215791Y0199600D02*
X0215585Y0199731D01*
X0215383Y0199868D01*
X0215184Y0200010D01*
X0214988Y0200156D01*
X0214796Y0200307D01*
X0214608Y0200463D01*
X0214424Y0200623D01*
X0214244Y0200788D01*
X0214067Y0200957D01*
X0213895Y0201130D01*
X0213728Y0201308D01*
X0213564Y0201489D01*
X0213405Y0201675D01*
X0213251Y0201864D01*
X0213101Y0202057D01*
X0212956Y0202254D01*
X0212816Y0202454D01*
X0212681Y0202657D01*
X0212551Y0202864D01*
X0212426Y0203074D01*
X0212306Y0203287D01*
X0212192Y0203502D01*
X0212083Y0203721D01*
X0211979Y0203942D01*
X0211880Y0204165D01*
X0211787Y0204391D01*
X0211700Y0204619D01*
X0211618Y0204849D01*
X0211541Y0205081D01*
X0211471Y0205315D01*
X0211406Y0205551D01*
X0211347Y0205788D01*
X0211294Y0206026D01*
X0211246Y0206265D01*
X0211205Y0206506D01*
X0211169Y0206748D01*
X0211139Y0206990D01*
X0211116Y0207233D01*
X0211098Y0207477D01*
X0211086Y0207721D01*
X0211080Y0207965D01*
X0211080Y0208209D01*
X0211086Y0208453D01*
X0211098Y0208697D01*
X0211116Y0208941D01*
X0211139Y0209184D01*
X0211169Y0209426D01*
X0211205Y0209668D01*
X0211246Y0209909D01*
X0211294Y0210148D01*
X0211347Y0210386D01*
X0211406Y0210623D01*
X0211471Y0210859D01*
X0211541Y0211093D01*
X0211618Y0211325D01*
X0211700Y0211555D01*
X0211787Y0211783D01*
X0211880Y0212009D01*
X0211979Y0212232D01*
X0212083Y0212453D01*
X0212192Y0212672D01*
X0212306Y0212887D01*
X0212426Y0213100D01*
X0212551Y0213310D01*
X0212681Y0213517D01*
X0212816Y0213720D01*
X0212956Y0213920D01*
X0213101Y0214117D01*
X0213251Y0214310D01*
X0213405Y0214499D01*
X0213564Y0214685D01*
X0213728Y0214866D01*
X0213895Y0215044D01*
X0214067Y0215217D01*
X0214244Y0215386D01*
X0214424Y0215551D01*
X0214608Y0215711D01*
X0214796Y0215867D01*
X0214988Y0216018D01*
X0215184Y0216164D01*
X0215383Y0216306D01*
X0215585Y0216443D01*
X0215791Y0216574D01*
X0217079Y0211087D02*
X0217079Y0209087D01*
X0225079Y0209087D01*
X0225079Y0211087D01*
X0221079Y0211087D01*
X0217079Y0211087D01*
X0221079Y0211087D02*
X0221079Y0213587D01*
X0222579Y0213087D02*
X0224579Y0213087D01*
X0223579Y0214087D02*
X0223579Y0212087D01*
X0226367Y0216574D02*
X0226573Y0216443D01*
X0226775Y0216306D01*
X0226974Y0216164D01*
X0227170Y0216018D01*
X0227362Y0215867D01*
X0227550Y0215711D01*
X0227734Y0215551D01*
X0227914Y0215386D01*
X0228091Y0215217D01*
X0228263Y0215044D01*
X0228430Y0214866D01*
X0228594Y0214685D01*
X0228753Y0214499D01*
X0228907Y0214310D01*
X0229057Y0214117D01*
X0229202Y0213920D01*
X0229342Y0213720D01*
X0229477Y0213517D01*
X0229607Y0213310D01*
X0229732Y0213100D01*
X0229852Y0212887D01*
X0229966Y0212672D01*
X0230075Y0212453D01*
X0230179Y0212232D01*
X0230278Y0212009D01*
X0230371Y0211783D01*
X0230458Y0211555D01*
X0230540Y0211325D01*
X0230617Y0211093D01*
X0230687Y0210859D01*
X0230752Y0210623D01*
X0230811Y0210386D01*
X0230864Y0210148D01*
X0230912Y0209909D01*
X0230953Y0209668D01*
X0230989Y0209426D01*
X0231019Y0209184D01*
X0231042Y0208941D01*
X0231060Y0208697D01*
X0231072Y0208453D01*
X0231078Y0208209D01*
X0231078Y0207965D01*
X0231072Y0207721D01*
X0231060Y0207477D01*
X0231042Y0207233D01*
X0231019Y0206990D01*
X0230989Y0206748D01*
X0230953Y0206506D01*
X0230912Y0206265D01*
X0230864Y0206026D01*
X0230811Y0205788D01*
X0230752Y0205551D01*
X0230687Y0205315D01*
X0230617Y0205081D01*
X0230540Y0204849D01*
X0230458Y0204619D01*
X0230371Y0204391D01*
X0230278Y0204165D01*
X0230179Y0203942D01*
X0230075Y0203721D01*
X0229966Y0203502D01*
X0229852Y0203287D01*
X0229732Y0203074D01*
X0229607Y0202864D01*
X0229477Y0202657D01*
X0229342Y0202454D01*
X0229202Y0202254D01*
X0229057Y0202057D01*
X0228907Y0201864D01*
X0228753Y0201675D01*
X0228594Y0201489D01*
X0228430Y0201308D01*
X0228263Y0201130D01*
X0228091Y0200957D01*
X0227914Y0200788D01*
X0227734Y0200623D01*
X0227550Y0200463D01*
X0227362Y0200307D01*
X0227170Y0200156D01*
X0226974Y0200010D01*
X0226775Y0199868D01*
X0226573Y0199731D01*
X0226367Y0199600D01*
D15*
X0215783Y0137457D02*
X0210783Y0137457D01*
X0208283Y0134957D01*
X0208283Y0129957D01*
X0210783Y0127457D01*
X0208283Y0124957D01*
X0208283Y0119957D01*
X0210783Y0117457D01*
X0208283Y0114957D01*
X0208283Y0109957D01*
X0210783Y0107457D01*
X0215783Y0107457D01*
X0218283Y0109957D01*
X0218283Y0114957D01*
X0215783Y0117457D01*
X0218283Y0119957D01*
X0218283Y0124957D01*
X0215783Y0127457D01*
X0218283Y0129957D01*
X0218283Y0134957D01*
X0215783Y0137457D01*
X0167280Y0035252D02*
X0162280Y0035252D01*
X0159780Y0032752D01*
X0159780Y0027752D01*
X0162280Y0025252D01*
X0159780Y0022752D01*
X0159780Y0017752D01*
X0162280Y0015252D01*
X0159780Y0012752D01*
X0159780Y0007752D01*
X0162280Y0005252D01*
X0167280Y0005252D01*
X0169780Y0007752D01*
X0169780Y0012752D01*
X0167280Y0015252D01*
X0169780Y0017752D01*
X0169780Y0022752D01*
X0167280Y0025252D01*
X0169780Y0027752D01*
X0169780Y0032752D01*
X0167280Y0035252D01*
X0158780Y0032752D02*
X0158780Y0027752D01*
X0135941Y0025819D02*
X0130941Y0025819D01*
X0053535Y0050193D02*
X0053535Y0055193D01*
X0052535Y0055193D02*
X0052535Y0050193D01*
X0050035Y0047693D01*
X0045035Y0047693D01*
X0042535Y0050193D01*
X0042535Y0055193D01*
X0045035Y0057693D01*
X0042535Y0060193D01*
X0042535Y0065193D01*
X0045035Y0067693D01*
X0042535Y0070193D01*
X0042535Y0075193D01*
X0045035Y0077693D01*
X0042535Y0080193D01*
X0042535Y0085193D01*
X0045035Y0087693D01*
X0050035Y0087693D01*
X0052535Y0085193D01*
X0052535Y0080193D01*
X0050035Y0077693D01*
X0052535Y0075193D01*
X0052535Y0070193D01*
X0050035Y0067693D01*
X0052535Y0065193D01*
X0052535Y0060193D01*
X0050035Y0057693D01*
X0052535Y0055193D01*
X0050862Y0148874D02*
X0045862Y0148874D01*
X0043362Y0151374D01*
X0043362Y0156374D01*
X0045862Y0158874D01*
X0043362Y0161374D01*
X0043362Y0166374D01*
X0045862Y0168874D01*
X0043362Y0171374D01*
X0043362Y0176374D01*
X0045862Y0178874D01*
X0043362Y0181374D01*
X0043362Y0186374D01*
X0045862Y0188874D01*
X0043362Y0191374D01*
X0043362Y0196374D01*
X0045862Y0198874D01*
X0043362Y0201374D01*
X0043362Y0206374D01*
X0045862Y0208874D01*
X0043362Y0211374D01*
X0043362Y0216374D01*
X0045862Y0218874D01*
X0043362Y0221374D01*
X0043362Y0226374D01*
X0045862Y0228874D01*
X0050862Y0228874D01*
X0053362Y0226374D01*
X0053362Y0221374D01*
X0050862Y0218874D01*
X0053362Y0216374D01*
X0053362Y0211374D01*
X0050862Y0208874D01*
X0053362Y0206374D01*
X0053362Y0201374D01*
X0050862Y0198874D01*
X0053362Y0196374D01*
X0053362Y0191374D01*
X0050862Y0188874D01*
X0053362Y0186374D01*
X0053362Y0181374D01*
X0050862Y0178874D01*
X0053362Y0176374D01*
X0053362Y0171374D01*
X0050862Y0168874D01*
X0053362Y0166374D01*
X0053362Y0161374D01*
X0050862Y0158874D01*
X0053362Y0156374D01*
X0053362Y0151374D01*
X0050862Y0148874D01*
X0017161Y0217732D02*
X0012161Y0217732D01*
X0009661Y0220232D01*
X0009661Y0225232D01*
X0012161Y0227732D01*
X0009661Y0230232D01*
X0009661Y0235232D01*
X0012161Y0237732D01*
X0009661Y0240232D01*
X0009661Y0245232D01*
X0012161Y0247732D01*
X0009661Y0250232D01*
X0009661Y0255232D01*
X0012161Y0257732D01*
X0017161Y0257732D01*
X0019661Y0255232D01*
X0019661Y0250232D01*
X0017161Y0247732D01*
X0019661Y0245232D01*
X0019661Y0240232D01*
X0017161Y0237732D01*
X0019661Y0235232D01*
X0019661Y0230232D01*
X0017161Y0227732D01*
X0019661Y0225232D01*
X0019661Y0220232D01*
X0017161Y0217732D01*
X0020661Y0220232D02*
X0020661Y0225232D01*
X0042362Y0226374D02*
X0042362Y0221374D01*
D16*
X0031909Y0041579D02*
X0026605Y0038042D01*
X0027489Y0035501D02*
X0029257Y0035501D01*
X0030141Y0034617D01*
X0030141Y0031965D01*
X0031909Y0031965D02*
X0026605Y0031965D01*
X0026605Y0034617D01*
X0027489Y0035501D01*
X0030141Y0033733D02*
X0031909Y0035501D01*
X0031909Y0038042D02*
X0026605Y0041579D01*
D17*
X0022257Y0041509D02*
X0017653Y0041509D01*
X0017653Y0039975D02*
X0017653Y0043044D01*
X0017653Y0038440D02*
X0022257Y0038440D01*
X0017653Y0035371D01*
X0022257Y0035371D01*
X0022257Y0033836D02*
X0019187Y0033836D01*
X0017653Y0032302D01*
X0019187Y0030767D01*
X0022257Y0030767D01*
X0019955Y0030767D02*
X0019955Y0033836D01*
X0020722Y0060688D02*
X0020722Y0062990D01*
X0019955Y0063757D01*
X0018420Y0063757D01*
X0017653Y0062990D01*
X0017653Y0060688D01*
X0022257Y0060688D01*
X0020722Y0062223D02*
X0022257Y0063757D01*
X0022257Y0065292D02*
X0017653Y0065292D01*
X0017653Y0068361D01*
X0018420Y0069896D02*
X0017653Y0070663D01*
X0017653Y0072198D01*
X0018420Y0072965D01*
X0019187Y0072965D01*
X0019955Y0072198D01*
X0020722Y0072965D01*
X0021489Y0072965D01*
X0022257Y0072198D01*
X0022257Y0070663D01*
X0021489Y0069896D01*
X0019955Y0071431D02*
X0019955Y0072198D01*
X0019187Y0074500D02*
X0017653Y0076035D01*
X0022257Y0076035D01*
X0022257Y0077569D02*
X0022257Y0074500D01*
X0021489Y0079104D02*
X0022257Y0079871D01*
X0022257Y0081406D01*
X0021489Y0082173D01*
X0019955Y0082173D01*
X0019187Y0081406D01*
X0019187Y0080639D01*
X0019955Y0079104D01*
X0017653Y0079104D01*
X0017653Y0082173D01*
X0023024Y0083708D02*
X0023024Y0086777D01*
X0022257Y0088312D02*
X0017653Y0088312D01*
X0017653Y0090614D01*
X0018420Y0091381D01*
X0019955Y0091381D01*
X0020722Y0090614D01*
X0020722Y0088312D01*
X0020722Y0089846D02*
X0022257Y0091381D01*
X0022257Y0092916D02*
X0017653Y0095985D01*
X0017653Y0092916D02*
X0022257Y0095985D01*
X0023024Y0097520D02*
X0023024Y0100589D01*
X0021489Y0102124D02*
X0022257Y0102891D01*
X0022257Y0104425D01*
X0021489Y0105193D01*
X0017653Y0105193D01*
X0019187Y0107495D02*
X0019187Y0109029D01*
X0019955Y0109797D01*
X0022257Y0109797D01*
X0022257Y0107495D01*
X0021489Y0106727D01*
X0020722Y0107495D01*
X0020722Y0109797D01*
X0020722Y0111331D02*
X0019187Y0112866D01*
X0019187Y0113633D01*
X0019187Y0115168D02*
X0019187Y0116703D01*
X0018420Y0115935D02*
X0021489Y0115935D01*
X0022257Y0116703D01*
X0022257Y0111331D02*
X0019187Y0111331D01*
X0017653Y0102124D02*
X0021489Y0102124D01*
X0045409Y0124782D02*
X0046943Y0126317D01*
X0050013Y0126317D01*
X0050013Y0127851D02*
X0045409Y0127851D01*
X0050013Y0130920D01*
X0045409Y0130920D01*
X0045409Y0132455D02*
X0045409Y0135524D01*
X0045409Y0133990D02*
X0050013Y0133990D01*
X0047711Y0126317D02*
X0047711Y0123247D01*
X0046943Y0123247D02*
X0050013Y0123247D01*
X0046943Y0123247D02*
X0045409Y0124782D01*
X0039343Y0144978D02*
X0034739Y0144978D01*
X0034739Y0148047D01*
X0035507Y0149582D02*
X0034739Y0150349D01*
X0034739Y0151884D01*
X0035507Y0152651D01*
X0037041Y0151884D02*
X0037809Y0152651D01*
X0038576Y0152651D01*
X0039343Y0151884D01*
X0039343Y0150349D01*
X0038576Y0149582D01*
X0037041Y0150349D02*
X0037041Y0151884D01*
X0037041Y0150349D02*
X0036274Y0149582D01*
X0035507Y0149582D01*
X0039343Y0148047D02*
X0039343Y0144978D01*
X0037041Y0144978D02*
X0037041Y0146513D01*
X0037809Y0154186D02*
X0037809Y0156488D01*
X0037041Y0157255D01*
X0035507Y0157255D01*
X0034739Y0156488D01*
X0034739Y0154186D01*
X0039343Y0154186D01*
X0038576Y0158790D02*
X0037809Y0158790D01*
X0037041Y0159557D01*
X0037041Y0161092D01*
X0037809Y0161859D01*
X0038576Y0161859D01*
X0039343Y0161092D01*
X0039343Y0159557D01*
X0038576Y0158790D01*
X0037041Y0159557D02*
X0036274Y0158790D01*
X0035507Y0158790D01*
X0034739Y0159557D01*
X0034739Y0161092D01*
X0035507Y0161859D01*
X0036274Y0161859D01*
X0037041Y0161092D01*
X0035507Y0163394D02*
X0034739Y0164161D01*
X0034739Y0165696D01*
X0035507Y0166463D01*
X0036274Y0166463D01*
X0039343Y0163394D01*
X0039343Y0166463D01*
X0038576Y0167998D02*
X0037041Y0167998D01*
X0037041Y0170300D01*
X0037809Y0171067D01*
X0038576Y0171067D01*
X0039343Y0170300D01*
X0039343Y0168765D01*
X0038576Y0167998D01*
X0037041Y0167998D02*
X0035507Y0169532D01*
X0034739Y0171067D01*
X0037041Y0172602D02*
X0037041Y0174903D01*
X0037809Y0175671D01*
X0038576Y0175671D01*
X0039343Y0174903D01*
X0039343Y0173369D01*
X0038576Y0172602D01*
X0037041Y0172602D01*
X0035507Y0174136D01*
X0034739Y0175671D01*
X0036274Y0181809D02*
X0036274Y0182577D01*
X0037041Y0183344D01*
X0036274Y0184111D01*
X0037041Y0184879D01*
X0039343Y0184879D01*
X0039343Y0186413D02*
X0039343Y0187948D01*
X0039343Y0187181D02*
X0036274Y0187181D01*
X0036274Y0186413D01*
X0034739Y0187181D02*
X0033972Y0187181D01*
X0036274Y0189483D02*
X0036274Y0191785D01*
X0037041Y0192552D01*
X0039343Y0192552D01*
X0039343Y0194087D02*
X0039343Y0195621D01*
X0039343Y0194854D02*
X0036274Y0194854D01*
X0036274Y0194087D01*
X0034739Y0194854D02*
X0033972Y0194854D01*
X0036274Y0189483D02*
X0039343Y0189483D01*
X0039343Y0183344D02*
X0037041Y0183344D01*
X0036274Y0181809D02*
X0039343Y0181809D01*
X0039343Y0201760D02*
X0039343Y0204062D01*
X0038576Y0204829D01*
X0037809Y0204062D01*
X0037809Y0202527D01*
X0037041Y0201760D01*
X0036274Y0202527D01*
X0036274Y0204829D01*
X0036274Y0206364D02*
X0036274Y0207131D01*
X0039343Y0207131D01*
X0039343Y0206364D02*
X0039343Y0207898D01*
X0038576Y0209433D02*
X0037041Y0209433D01*
X0036274Y0210200D01*
X0036274Y0212502D01*
X0034739Y0212502D02*
X0039343Y0212502D01*
X0039343Y0210200D01*
X0038576Y0209433D01*
X0034739Y0207131D02*
X0033972Y0207131D01*
X0037041Y0214037D02*
X0036274Y0214804D01*
X0036274Y0216339D01*
X0037041Y0217106D01*
X0037809Y0217106D01*
X0037809Y0214037D01*
X0038576Y0214037D02*
X0037041Y0214037D01*
X0038576Y0214037D02*
X0039343Y0214804D01*
X0039343Y0216339D01*
X0039837Y0222491D02*
X0039837Y0225560D01*
X0039837Y0227094D02*
X0039069Y0228629D01*
X0039069Y0229396D01*
X0039837Y0230164D01*
X0041371Y0230164D01*
X0042139Y0229396D01*
X0042139Y0227862D01*
X0041371Y0227094D01*
X0039837Y0227094D02*
X0037535Y0227094D01*
X0037535Y0230164D01*
X0039069Y0231698D02*
X0042139Y0233233D01*
X0039069Y0234768D01*
X0046472Y0243294D02*
X0050308Y0243294D01*
X0051076Y0244061D01*
X0051076Y0245596D01*
X0050308Y0246363D01*
X0046472Y0246363D01*
X0047239Y0247898D02*
X0048006Y0247898D01*
X0048774Y0248665D01*
X0048774Y0250200D01*
X0049541Y0250967D01*
X0050308Y0250967D01*
X0051076Y0250200D01*
X0051076Y0248665D01*
X0050308Y0247898D01*
X0047239Y0247898D02*
X0046472Y0248665D01*
X0046472Y0250200D01*
X0047239Y0250967D01*
X0046472Y0252502D02*
X0046472Y0254804D01*
X0047239Y0255571D01*
X0048006Y0255571D01*
X0048774Y0254804D01*
X0048774Y0252502D01*
X0048774Y0254804D02*
X0049541Y0255571D01*
X0050308Y0255571D01*
X0051076Y0254804D01*
X0051076Y0252502D01*
X0046472Y0252502D01*
X0041371Y0224025D02*
X0038302Y0224025D01*
X0019955Y0066827D02*
X0019955Y0065292D01*
D18*
X0221079Y0206087D03*
M02*
