%
M48
M72
T01C0.02400
T02C0.03200
T03C0.04000
T04C0.06299
T05C0.07874
%
T01
X184279Y316000
X145279Y325000
X184279Y358000
X172279Y382000
X94279Y325000
X271279Y370000
X310279Y313000
T02
X178996Y286827
X158996Y286827
T03
X157697Y326157
X157697Y336157
X167697Y336157
X167697Y326157
X167697Y346157
X167697Y356157
X157697Y356157
X157697Y346157
X192303Y383008
X202303Y383008
X212303Y383008
X251358Y383008
X261358Y383008
X271358Y383008
X288917Y382772
X298917Y382772
X308917Y382772
X318917Y382772
X386555Y379031
X386555Y369031
X386555Y359031
X386555Y349031
X386555Y339031
X386555Y329031
X379350Y302890
X346161Y284583
X336161Y284583
X326161Y284583
X295295Y284346
X285295Y284346
X275295Y284346
X296673Y259583
X296673Y249583
X296673Y239583
X296673Y229583
X218838Y258992
X208838Y258992
X109980Y287496
X99980Y287496
X89980Y287496
X79980Y287496
X69980Y287496
X59980Y287496
X49980Y287496
X39980Y287496
X39980Y376866
X49980Y376866
X59980Y376866
X69980Y376866
X79980Y376866
X89980Y376866
X99980Y376866
X109980Y376866
X210964Y20331
X230964Y20331
T04
X24508Y23756
X44508Y23756
X64508Y23756
X84508Y23756
T05
X89665Y70370
X109665Y70370
X62579Y70370
X42579Y70370
X44547Y246354
X64547Y246354
X84547Y246354
X104547Y246354
M30
